# Blender v3.6.5 OBJ File: ''
# www.blender.org
mtllib lightbulb.mtl
o Cylinder
v 0.005399 -0.878524 -0.242000
v 0.005399 -0.390301 -0.242000
v 0.098816 -0.878524 -0.223418
v 0.098816 -0.390301 -0.223418
v 0.178012 -0.878524 -0.170502
v 0.178012 -0.390301 -0.170502
v 0.230928 -0.878524 -0.091306
v 0.230928 -0.390301 -0.091306
v 0.249510 -0.878524 0.002111
v 0.249510 -0.390301 0.002111
v 0.230928 -0.878524 0.095528
v 0.230928 -0.390301 0.095528
v 0.178012 -0.878524 0.174724
v 0.178012 -0.390301 0.174724
v 0.098816 -0.878524 0.227641
v 0.098816 -0.390301 0.227641
v 0.005399 -0.878524 0.246222
v 0.005399 -0.390301 0.246222
v -0.088018 -0.878524 0.227641
v -0.088018 -0.390301 0.227641
v -0.167214 -0.878524 0.174724
v -0.167214 -0.390301 0.174724
v -0.220131 -0.878524 0.095528
v -0.220131 -0.390301 0.095528
v -0.238712 -0.878524 0.002111
v -0.238712 -0.390301 0.002111
v -0.220131 -0.878524 -0.091306
v -0.220131 -0.390301 -0.091306
v -0.167214 -0.878524 -0.170502
v -0.167214 -0.390301 -0.170502
v -0.088018 -0.878524 -0.223418
v -0.088018 -0.390301 -0.223418
v 0.005399 -0.955756 -0.145967
v 0.062066 -0.955756 -0.134696
v 0.110106 -0.955756 -0.102596
v 0.142206 -0.955756 -0.054556
v 0.153477 -0.955756 0.002111
v 0.142206 -0.955756 0.058778
v 0.110106 -0.955756 0.106818
v 0.062066 -0.955756 0.138918
v 0.005399 -0.955756 0.150190
v -0.051268 -0.955756 0.138918
v -0.099308 -0.955756 0.106818
v -0.131408 -0.955756 0.058778
v -0.142680 -0.955756 0.002111
v -0.131408 -0.955756 -0.054556
v -0.099308 -0.955756 -0.102596
v -0.051268 -0.955756 -0.134696
vt 0.607107 0.246406
vt 0.593894 0.086093
vt 0.607107 0.086093
vt 0.593894 0.246406
vt 0.580680 0.086093
vt 0.580680 0.246406
vt 0.567467 0.086093
vt 0.567467 0.246406
vt 0.554254 0.086093
vt 0.554254 0.246406
vt 0.541040 0.086093
vt 0.541040 0.246406
vt 0.527827 0.086093
vt 0.527827 0.246406
vt 0.514614 0.086093
vt 0.514614 0.246406
vt 0.501401 0.086093
vt 0.501401 0.246406
vt 0.488187 0.086093
vt 0.488187 0.246406
vt 0.474974 0.086093
vt 0.474974 0.246406
vt 0.461761 0.086093
vt 0.461761 0.246406
vt 0.448548 0.086093
vt 0.448548 0.246406
vt 0.435335 0.086093
vt 0.435335 0.246406
vt 0.422121 0.086093
vt 0.466264 0.032018
vt 0.534767 0.032018
vt 0.534767 0.049495
vt 0.422121 0.246406
vt 0.408908 0.086093
vt 0.408908 0.246406
vt 0.395695 0.086093
vt 0.541040 0.086093
vt 0.455764 0.036027
vt 0.455764 0.045486
vt 0.481979 0.052174
vt 0.474974 0.086093
vt 0.395695 0.086093
vt 0.408908 0.086093
vt 0.567467 0.086093
vt 0.501401 0.086093
vt 0.435335 0.086093
vt 0.593894 0.086093
vt 0.514614 0.086093
vt 0.527827 0.086093
vt 0.448548 0.086093
vt 0.461761 0.086093
vt 0.554254 0.086093
vt 0.488187 0.086093
vt 0.422121 0.086093
vt 0.580680 0.086093
vt 0.607107 0.086093
vt 0.519052 0.052174
vt 0.500516 0.053115
vt 0.481979 0.052174
vt 0.466264 0.049495
vt 0.455764 0.045486
vt 0.452077 0.040757
vt 0.455764 0.036027
vt 0.481979 0.029339
vt 0.500516 0.028398
vt 0.519052 0.029339
vt 0.545267 0.036027
vt 0.548954 0.040757
vt 0.545267 0.045486
vt 0.395695 0.246406
vt 0.500516 0.053115
vt 0.519052 0.052174
vt 0.534767 0.049495
vt 0.545267 0.045486
vt 0.548954 0.040757
vt 0.545267 0.036027
vt 0.534767 0.032018
vt 0.519052 0.029339
vt 0.500516 0.028398
vt 0.481979 0.029339
vt 0.466264 0.032018
vt 0.452077 0.040757
vt 0.466264 0.049495
vn 0.1951 0.0000 -0.9808
vn 0.5556 0.0000 -0.8315
vn 0.8315 0.0000 -0.5556
vn 0.9808 0.0000 -0.1951
vn 0.9808 0.0000 0.1951
vn 0.8315 0.0000 0.5556
vn 0.5556 0.0000 0.8315
vn 0.1951 0.0000 0.9808
vn -0.1951 0.0000 0.9808
vn -0.5556 0.0000 0.8315
vn -0.8315 0.0000 0.5556
vn -0.9808 0.0000 0.1951
vn -0.9808 0.0000 -0.1951
vn -0.8315 0.0000 -0.5556
vn 0.0000 1.0000 0.0000
vn -0.5556 0.0000 -0.8315
vn -0.1951 0.0000 -0.9808
vn 0.5272 -0.7733 0.3523
vn 0.0000 -1.0000 0.0000
vn -0.5272 -0.7733 0.3523
vn -0.1237 -0.7733 -0.6219
vn 0.6219 -0.7733 -0.1237
vn -0.1237 -0.7733 0.6219
vn -0.5272 -0.7733 -0.3523
vn 0.3523 -0.7733 -0.5272
vn 0.3523 -0.7733 0.5272
vn -0.6219 -0.7733 0.1237
vn 0.6219 -0.7733 0.1237
vn -0.3523 -0.7733 0.5272
vn -0.3523 -0.7733 -0.5272
vn 0.5272 -0.7733 -0.3523
vn 0.1237 -0.7733 0.6219
vn 0.1237 -0.7733 -0.6219
vn -0.6219 -0.7733 -0.1237
usemtl Material.001
s off
f 2/1/1 3/2/1 1/3/1
f 4/4/2 5/5/2 3/2/2
f 6/6/3 7/7/3 5/5/3
f 8/8/4 9/9/4 7/7/4
f 10/10/5 11/11/5 9/9/5
f 12/12/6 13/13/6 11/11/6
f 14/14/7 15/15/7 13/13/7
f 16/16/8 17/17/8 15/15/8
f 18/18/9 19/19/9 17/17/9
f 20/20/10 21/21/10 19/19/10
f 22/22/11 23/23/11 21/21/11
f 24/24/12 25/25/12 23/23/12
f 26/26/13 27/27/13 25/25/13
f 28/28/14 29/29/14 27/27/14
f 22/30/15 14/31/15 6/32/15
f 30/33/16 31/34/16 29/29/16
f 32/35/17 1/36/17 31/34/17
f 13/13/18 38/37/18 11/11/18
f 44/38/19 46/39/19 48/40/19
f 23/23/20 43/41/20 21/21/20
f 31/34/21 33/42/21 48/43/21
f 9/9/22 36/44/22 7/7/22
f 19/19/23 41/45/23 17/17/23
f 29/29/24 46/46/24 27/27/24
f 5/5/25 34/47/25 3/2/25
f 13/13/26 40/48/26 39/49/26
f 23/23/27 45/50/27 44/51/27
f 11/11/28 37/52/28 9/9/28
f 21/21/29 42/53/29 19/19/29
f 31/34/30 47/54/30 29/29/30
f 5/5/31 36/44/31 35/55/31
f 17/17/32 40/48/32 15/15/32
f 3/2/33 33/56/33 1/3/33
f 27/27/34 45/50/34 25/25/34
f 2/1/1 4/4/1 3/2/1
f 4/4/2 6/6/2 5/5/2
f 6/6/3 8/8/3 7/7/3
f 8/8/4 10/10/4 9/9/4
f 10/10/5 12/12/5 11/11/5
f 12/12/6 14/14/6 13/13/6
f 14/14/7 16/16/7 15/15/7
f 16/16/8 18/18/8 17/17/8
f 18/18/9 20/20/9 19/19/9
f 20/20/10 22/22/10 21/21/10
f 22/22/11 24/24/11 23/23/11
f 24/24/12 26/26/12 25/25/12
f 26/26/13 28/28/13 27/27/13
f 28/28/14 30/33/14 29/29/14
f 6/32/15 4/57/15 2/58/15
f 2/58/15 32/59/15 6/32/15
f 32/59/15 30/60/15 6/32/15
f 30/60/15 28/61/15 22/30/15
f 28/61/15 26/62/15 22/30/15
f 26/62/15 24/63/15 22/30/15
f 22/30/15 20/64/15 14/31/15
f 20/64/15 18/65/15 14/31/15
f 18/65/15 16/66/15 14/31/15
f 14/31/15 12/67/15 10/68/15
f 10/68/15 8/69/15 14/31/15
f 8/69/15 6/32/15 14/31/15
f 6/32/15 30/60/15 22/30/15
f 30/33/16 32/35/16 31/34/16
f 32/35/17 2/70/17 1/36/17
f 13/13/18 39/49/18 38/37/18
f 48/40/19 33/71/19 34/72/19
f 34/72/19 35/73/19 36/74/19
f 36/74/19 37/75/19 38/76/19
f 38/76/19 39/77/19 40/78/19
f 40/78/19 41/79/19 42/80/19
f 42/80/19 43/81/19 44/38/19
f 44/38/19 45/82/19 46/39/19
f 46/39/19 47/83/19 48/40/19
f 48/40/19 34/72/19 40/78/19
f 34/72/19 36/74/19 40/78/19
f 36/74/19 38/76/19 40/78/19
f 40/78/19 42/80/19 48/40/19
f 42/80/19 44/38/19 48/40/19
f 23/23/20 44/51/20 43/41/20
f 31/34/21 1/36/21 33/42/21
f 9/9/22 37/52/22 36/44/22
f 19/19/23 42/53/23 41/45/23
f 29/29/24 47/54/24 46/46/24
f 5/5/25 35/55/25 34/47/25
f 13/13/26 15/15/26 40/48/26
f 23/23/27 25/25/27 45/50/27
f 11/11/28 38/37/28 37/52/28
f 21/21/29 43/41/29 42/53/29
f 31/34/30 48/43/30 47/54/30
f 5/5/31 7/7/31 36/44/31
f 17/17/32 41/45/32 40/48/32
f 3/2/33 34/47/33 33/56/33
f 27/27/34 46/46/34 45/50/34
o Icosphere
v 0.005399 -0.519115 0.002111
v 0.448967 0.021750 0.324379
v -0.164026 0.021750 0.523556
v -0.542881 0.021753 0.002111
v -0.164026 0.021750 -0.519334
v 0.448967 0.021750 -0.320157
v 0.174824 0.570038 0.523556
v -0.438170 0.570038 0.324379
v -0.438170 0.570038 -0.320157
v 0.174824 0.570038 -0.519334
v 0.553679 0.570036 0.002111
v 0.005399 0.908890 0.002111
v -0.062058 -0.457102 0.209727
v 0.182008 -0.457102 0.130424
v 0.166536 -0.026381 0.498032
v 0.526843 -0.026380 0.002111
v 0.182008 -0.457102 -0.126201
v -0.212903 -0.457101 0.002111
v -0.416459 -0.026380 0.308607
v -0.062058 -0.457102 -0.205505
v -0.416459 -0.026380 -0.304385
v 0.166536 -0.026381 -0.493810
v 0.588394 0.295894 0.191535
v 0.588394 0.295894 -0.187312
v 0.005399 0.295894 0.615107
v 0.365709 0.295894 0.498035
v -0.577596 0.295894 0.191535
v -0.354912 0.295894 0.498035
v -0.354912 0.295894 -0.493813
v -0.577596 0.295894 -0.187312
v 0.365709 0.295894 -0.493813
v 0.005399 0.295894 -0.610885
v 0.427256 0.618168 0.308607
v -0.155739 0.618169 0.498032
v -0.516045 0.618168 0.002111
v -0.155739 0.618169 -0.493810
v 0.427256 0.618168 -0.304385
v 0.104984 0.817342 0.308606
v 0.327669 0.817340 0.002111
v -0.255322 0.817342 0.191534
v -0.255322 0.817342 -0.187312
v 0.104984 0.817342 -0.304384
vt 0.181819 0.000000
vt 0.227273 0.078731
vt 0.136365 0.078731
vt 0.272728 0.157461
vt 0.318182 0.078731
vt 0.363637 0.157461
vt 0.909091 0.000000
vt 0.954545 0.078731
vt 0.863636 0.078731
vt 0.727273 0.000000
vt 0.772727 0.078731
vt 0.681818 0.078731
vt 0.545455 0.000000
vt 0.590909 0.078731
vt 0.500000 0.078731
vt 0.318182 0.236191
vt 0.090910 0.157461
vt 0.181819 0.157461
vt 0.136365 0.236191
vt 0.818182 0.157461
vt 0.909091 0.157461
vt 0.863636 0.236191
vt 0.636364 0.157461
vt 0.727273 0.157461
vt 0.681818 0.236191
vt 0.454546 0.157461
vt 0.545455 0.157461
vt 0.500000 0.236191
vt 0.227273 0.236191
vt 0.045455 0.236191
vt 0.772727 0.236191
vt 0.590909 0.236191
vt 0.409092 0.236191
vt 0.181819 0.314921
vt 0.272728 0.314921
vt 0.227273 0.393651
vt 0.000000 0.314921
vt 0.090910 0.314921
vt 0.045455 0.393651
vt 0.727273 0.314921
vt 0.818182 0.314921
vt 0.772727 0.393651
vt 0.545455 0.314921
vt 0.636364 0.314921
vt 0.590909 0.393651
vt 0.363637 0.314921
vt 0.454546 0.314921
vt 0.409092 0.393651
vt 0.500000 0.393651
vt 0.454546 0.472382
vt 0.681818 0.393651
vt 0.636364 0.472382
vt 0.863636 0.393651
vt 0.818182 0.472382
vt 0.909091 0.314921
vt 0.136365 0.393651
vt 0.090910 0.472382
vt 0.318182 0.393651
vt 0.272728 0.472382
vt 0.954545 0.236191
vt 1.000000 0.157461
vt 0.409092 0.078731
vt 0.363637 0.000000
vn 0.1024 -0.9435 0.3151
vn 0.7890 -0.5504 0.2729
vn -0.2680 -0.9435 0.1947
vn -0.2680 -0.9435 -0.1947
vn 0.1024 -0.9435 -0.3151
vn 0.9050 -0.3304 0.2680
vn 0.0247 -0.3304 0.9435
vn -0.8897 -0.3304 0.3151
vn -0.5746 -0.3304 -0.7488
vn 0.5346 -0.3304 -0.7779
vn 0.8026 -0.1256 0.5831
vn -0.3066 -0.1256 0.9435
vn -0.9921 -0.1256 0.0000
vn -0.3066 -0.1256 -0.9435
vn 0.8026 -0.1256 -0.5831
vn 0.4089 0.6617 0.6284
vn -0.4713 0.6617 0.5831
vn -0.7002 0.6617 -0.2680
vn 0.0385 0.6617 -0.7488
vn 0.7240 0.6617 -0.1947
vn 0.2680 0.9435 -0.1947
vn 0.4911 0.7947 -0.3568
vn 0.4089 0.6617 -0.6284
vn -0.1024 0.9435 -0.3151
vn -0.1876 0.7947 -0.5773
vn -0.4713 0.6617 -0.5831
vn -0.3313 0.9435 0.0000
vn -0.6071 0.7947 0.0000
vn -0.7002 0.6617 0.2680
vn -0.1024 0.9435 0.3151
vn -0.1876 0.7947 0.5773
vn 0.0385 0.6617 0.7488
vn 0.2680 0.9435 0.1947
vn 0.4911 0.7947 0.3568
vn 0.7240 0.6617 0.1947
vn 0.8897 0.3304 -0.3151
vn 0.7947 0.1876 -0.5773
vn 0.5746 0.3304 -0.7488
vn -0.0247 0.3304 -0.9435
vn -0.3035 0.1876 -0.9342
vn -0.5346 0.3304 -0.7779
vn -0.9050 0.3304 -0.2680
vn -0.9822 0.1876 0.0000
vn -0.9050 0.3304 0.2680
vn -0.5346 0.3304 0.7779
vn -0.3035 0.1876 0.9342
vn -0.0247 0.3304 0.9435
vn 0.5746 0.3304 0.7488
vn 0.7947 0.1876 0.5773
vn 0.8897 0.3304 0.3151
vn 0.3066 0.1256 -0.9435
vn 0.3035 -0.1876 -0.9342
vn 0.0247 -0.3304 -0.9435
vn -0.8026 0.1256 -0.5831
vn -0.7947 -0.1876 -0.5773
vn -0.8897 -0.3304 -0.3151
vn -0.8026 0.1256 0.5831
vn -0.7947 -0.1876 0.5773
vn -0.5746 -0.3304 0.7488
vn 0.3066 0.1256 0.9435
vn 0.3035 -0.1876 0.9342
vn 0.5346 -0.3304 0.7779
vn 0.9921 0.1256 0.0000
vn 0.9822 -0.1876 0.0000
vn 0.9050 -0.3304 -0.2680
vn 0.5034 -0.5504 -0.6661
vn 0.2412 -0.6250 -0.7424
vn -0.0157 -0.5504 -0.8347
vn -0.4780 -0.5504 -0.6845
vn -0.6315 -0.6250 -0.4589
vn -0.7987 -0.5504 -0.2430
vn -0.7987 -0.5504 0.2430
vn -0.6315 -0.6250 0.4589
vn -0.4780 -0.5504 0.6845
vn 0.7890 -0.5504 -0.2729
vn 0.7806 -0.6250 0.0000
vn 0.3313 -0.9435 0.0000
vn -0.0157 -0.5504 0.8347
vn 0.2412 -0.6250 0.7424
vn 0.5034 -0.5504 0.6661
usemtl Material.002
s off
f 49/84/35 62/85/35 61/86/35
f 50/87/36 62/88/36 64/89/36
f 49/90/37 61/91/37 66/92/37
f 49/93/38 66/94/38 68/95/38
f 49/96/39 68/97/39 65/98/39
f 50/87/40 64/89/40 71/99/40
f 51/100/41 63/101/41 73/102/41
f 52/103/42 67/104/42 75/105/42
f 53/106/43 69/107/43 77/108/43
f 54/109/44 70/110/44 79/111/44
f 50/87/45 71/99/45 74/112/45
f 51/100/46 73/102/46 76/113/46
f 52/103/47 75/105/47 78/114/47
f 53/106/48 77/108/48 80/115/48
f 54/109/49 79/111/49 72/116/49
f 55/117/50 81/118/50 86/119/50
f 56/120/51 82/121/51 88/122/51
f 57/123/52 83/124/52 89/125/52
f 58/126/53 84/127/53 90/128/53
f 59/129/54 85/130/54 87/131/54
f 87/131/55 90/132/55 60/133/55
f 87/131/56 85/130/56 90/132/56
f 85/130/57 58/126/57 90/132/57
f 90/128/58 89/134/58 60/135/58
f 90/128/59 84/127/59 89/134/59
f 84/127/60 57/123/60 89/134/60
f 89/125/61 88/136/61 60/137/61
f 89/125/62 83/124/62 88/136/62
f 83/124/63 56/138/63 88/136/63
f 88/122/64 86/139/64 60/140/64
f 88/122/65 82/121/65 86/139/65
f 82/121/66 55/117/66 86/139/66
f 86/119/67 87/141/67 60/142/67
f 86/119/68 81/118/68 87/141/68
f 81/118/69 59/129/69 87/141/69
f 72/116/70 85/130/70 59/129/70
f 72/116/71 79/111/71 85/130/71
f 79/111/72 58/126/72 85/130/72
f 80/115/73 84/127/73 58/126/73
f 80/115/74 77/108/74 84/127/74
f 77/108/75 57/123/75 84/127/75
f 78/114/76 83/124/76 57/123/76
f 78/114/77 75/105/77 83/124/77
f 75/105/78 56/138/78 83/124/78
f 76/113/79 82/121/79 56/120/79
f 76/113/80 73/102/80 82/121/80
f 73/102/81 55/117/81 82/121/81
f 74/112/82 81/118/82 55/117/82
f 74/112/83 71/99/83 81/118/83
f 71/99/84 59/129/84 81/118/84
f 79/111/85 80/115/85 58/126/85
f 79/111/86 70/110/86 80/115/86
f 70/110/87 53/106/87 80/115/87
f 77/108/88 78/114/88 57/123/88
f 77/108/89 69/107/89 78/114/89
f 69/107/90 52/103/90 78/114/90
f 75/105/91 76/143/91 56/138/91
f 75/105/92 67/104/92 76/143/92
f 67/104/93 51/144/93 76/143/93
f 73/102/94 74/112/94 55/117/94
f 73/102/95 63/101/95 74/112/95
f 63/101/96 50/87/96 74/112/96
f 71/99/97 72/116/97 59/129/97
f 71/99/98 64/89/98 72/116/98
f 64/89/99 54/109/99 72/116/99
f 65/98/100 70/110/100 54/109/100
f 65/98/101 68/97/101 70/110/101
f 68/97/102 53/106/102 70/110/102
f 68/95/103 69/107/103 53/106/103
f 68/95/104 66/94/104 69/107/104
f 66/94/105 52/103/105 69/107/105
f 66/92/106 67/104/106 52/103/106
f 66/92/107 61/91/107 67/104/107
f 61/91/108 51/144/108 67/104/108
f 64/89/109 65/145/109 54/109/109
f 64/89/110 62/88/110 65/145/110
f 62/88/111 49/146/111 65/145/111
f 61/86/112 63/101/112 51/100/112
f 61/86/113 62/85/113 63/101/113
f 62/85/114 50/87/114 63/101/114
