# Blender v3.6.5 OBJ File: 'tomato_crate.blend'
# www.blender.org
mtllib tomato_crate.mtl
o Cube
v 1.154347 -0.998151 1.000412
v 1.154347 -0.457675 1.000412
v 1.154347 -0.998151 1.154137
v 1.154347 -0.457675 1.154137
v -1.154347 -0.998151 1.000412
v -1.154347 -0.457675 1.000412
v -1.154347 -0.998151 1.154137
v -1.154347 -0.457675 1.154137
vt 0.875000 0.500000
vt 0.625000 0.500000
vt 0.625000 0.750000
vt 0.375000 0.750000
vt 0.375000 1.000000
vt 0.625000 0.000000
vt 0.375000 0.000000
vt 0.375000 0.250000
vt 0.375000 0.500000
vt 0.125000 0.500000
vt 0.125000 0.750000
vt 0.625000 0.250000
vt 0.875000 0.750000
vt 0.625000 1.000000
vn 0.0000 -1.0000 0.0000
vn 0.0000 0.0000 1.0000
vn -1.0000 0.0000 0.0000
vn 0.0000 1.0000 0.0000
vn 1.0000 0.0000 0.0000
vn 0.0000 0.0000 -1.0000
usemtl Material
s off
f 5/1/1 1/2/1 3/3/1
f 3/3/2 4/4/2 8/5/2
f 7/6/3 8/7/3 6/8/3
f 2/9/4 6/10/4 8/11/4
f 1/2/5 2/9/5 4/4/5
f 5/12/6 6/8/6 2/9/6
f 5/1/1 3/3/1 7/13/1
f 3/3/2 8/5/2 7/14/2
f 7/6/3 6/8/3 5/12/3
f 2/9/4 8/11/4 4/4/4
f 1/2/5 4/4/5 3/3/5
f 5/12/6 2/9/6 1/2/6
o Cube.002
v 1.154347 -0.326263 1.000412
v 1.154347 0.214213 1.000412
v 1.154347 -0.326263 1.154137
v 1.154347 0.214213 1.154137
v -1.154347 -0.326263 1.000412
v -1.154347 0.214213 1.000412
v -1.154347 -0.326263 1.154137
v -1.154347 0.214213 1.154137
vt 0.875000 0.500000
vt 0.625000 0.500000
vt 0.625000 0.750000
vt 0.375000 0.750000
vt 0.375000 1.000000
vt 0.625000 0.000000
vt 0.375000 0.000000
vt 0.375000 0.250000
vt 0.375000 0.500000
vt 0.125000 0.500000
vt 0.125000 0.750000
vt 0.625000 0.250000
vt 0.875000 0.750000
vt 0.625000 1.000000
vn 0.0000 -1.0000 0.0000
vn 0.0000 0.0000 1.0000
vn -1.0000 0.0000 0.0000
vn 0.0000 1.0000 0.0000
vn 1.0000 0.0000 0.0000
vn 0.0000 0.0000 -1.0000
usemtl Material
s off
f 13/15/7 9/16/7 11/17/7
f 11/17/8 12/18/8 16/19/8
f 15/20/9 16/21/9 14/22/9
f 10/23/10 14/24/10 16/25/10
f 9/16/11 10/23/11 12/18/11
f 13/26/12 14/22/12 10/23/12
f 13/15/7 11/17/7 15/27/7
f 11/17/8 16/19/8 15/28/8
f 15/20/9 14/22/9 13/26/9
f 10/23/10 16/25/10 12/18/10
f 9/16/11 12/18/11 11/17/11
f 13/26/12 10/23/12 9/16/12
o Cube.003
v 1.154347 -0.998151 -1.152803
v 1.154347 -0.457675 -1.152803
v 1.154347 -0.998151 -0.999077
v 1.154347 -0.457675 -0.999077
v -1.154347 -0.998151 -1.152803
v -1.154347 -0.457675 -1.152803
v -1.154347 -0.998151 -0.999077
v -1.154347 -0.457675 -0.999077
vt 0.875000 0.500000
vt 0.625000 0.500000
vt 0.625000 0.750000
vt 0.375000 0.750000
vt 0.375000 1.000000
vt 0.625000 0.000000
vt 0.375000 0.000000
vt 0.375000 0.250000
vt 0.375000 0.500000
vt 0.125000 0.500000
vt 0.125000 0.750000
vt 0.625000 0.250000
vt 0.875000 0.750000
vt 0.625000 1.000000
vn 0.0000 -1.0000 0.0000
vn 0.0000 0.0000 1.0000
vn -1.0000 0.0000 0.0000
vn 0.0000 1.0000 0.0000
vn 1.0000 0.0000 0.0000
vn 0.0000 0.0000 -1.0000
usemtl Material
s off
f 21/29/13 17/30/13 19/31/13
f 19/31/14 20/32/14 24/33/14
f 23/34/15 24/35/15 22/36/15
f 18/37/16 22/38/16 24/39/16
f 17/30/17 18/37/17 20/32/17
f 21/40/18 22/36/18 18/37/18
f 21/29/13 19/31/13 23/41/13
f 19/31/14 24/33/14 23/42/14
f 23/34/15 22/36/15 21/40/15
f 18/37/16 24/39/16 20/32/16
f 17/30/17 20/32/17 19/31/17
f 21/40/18 18/37/18 17/30/18
o Cube.004
v 1.154347 -0.326263 -1.152803
v 1.154347 0.214213 -1.152803
v 1.154347 -0.326263 -0.999077
v 1.154347 0.214213 -0.999077
v -1.154347 -0.326263 -1.152803
v -1.154347 0.214213 -1.152803
v -1.154347 -0.326263 -0.999077
v -1.154347 0.214213 -0.999077
vt 0.875000 0.500000
vt 0.625000 0.500000
vt 0.625000 0.750000
vt 0.375000 0.750000
vt 0.375000 1.000000
vt 0.625000 0.000000
vt 0.375000 0.000000
vt 0.375000 0.250000
vt 0.375000 0.500000
vt 0.125000 0.500000
vt 0.125000 0.750000
vt 0.625000 0.250000
vt 0.875000 0.750000
vt 0.625000 1.000000
vn 0.0000 -1.0000 0.0000
vn 0.0000 0.0000 1.0000
vn -1.0000 0.0000 0.0000
vn 0.0000 1.0000 0.0000
vn 1.0000 0.0000 0.0000
vn 0.0000 0.0000 -1.0000
usemtl Material
s off
f 29/43/19 25/44/19 27/45/19
f 27/45/20 28/46/20 32/47/20
f 31/48/21 32/49/21 30/50/21
f 26/51/22 30/52/22 32/53/22
f 25/44/23 26/51/23 28/46/23
f 29/54/24 30/50/24 26/51/24
f 29/43/19 27/45/19 31/55/19
f 27/45/20 32/47/20 31/56/20
f 31/48/21 30/50/21 29/54/21
f 26/51/22 32/53/22 28/46/22
f 25/44/23 28/46/23 27/45/23
f 29/54/24 26/51/24 25/44/24
o Cube.005
v 0.999745 -0.998151 -1.000131
v 0.999745 -0.457675 -1.000131
v 1.153470 -0.998151 -1.000131
v 1.153470 -0.457675 -1.000131
v 0.999745 -0.998151 1.001465
v 0.999745 -0.457675 1.001465
v 1.153470 -0.998151 1.001465
v 1.153470 -0.457675 1.001465
vt 0.875000 0.500000
vt 0.625000 0.500000
vt 0.625000 0.750000
vt 0.375000 0.750000
vt 0.375000 1.000000
vt 0.625000 0.000000
vt 0.375000 0.000000
vt 0.375000 0.250000
vt 0.375000 0.500000
vt 0.125000 0.500000
vt 0.125000 0.750000
vt 0.625000 0.250000
vt 0.875000 0.750000
vt 0.625000 1.000000
vn 0.0000 -1.0000 0.0000
vn 1.0000 0.0000 -0.0000
vn 0.0000 0.0000 1.0000
vn 0.0000 1.0000 0.0000
vn 0.0000 0.0000 -1.0000
vn -1.0000 0.0000 0.0000
usemtl Material
s off
f 37/57/25 33/58/25 35/59/25
f 35/59/26 36/60/26 40/61/26
f 39/62/27 40/63/27 38/64/27
f 34/65/28 38/66/28 40/67/28
f 33/58/29 34/65/29 36/60/29
f 37/68/30 38/64/30 34/65/30
f 37/57/25 35/59/25 39/69/25
f 35/59/26 40/61/26 39/70/26
f 39/62/27 38/64/27 37/68/27
f 34/65/28 40/67/28 36/60/28
f 33/58/29 36/60/29 35/59/29
f 37/68/30 34/65/30 33/58/30
o Cube.006
v 0.999745 -0.326263 -1.000131
v 0.999745 0.214213 -1.000131
v 1.153470 -0.326263 -1.000131
v 1.153470 0.214213 -1.000131
v 0.999745 -0.326263 1.001465
v 0.999745 0.214213 1.001465
v 1.153470 -0.326263 1.001465
v 1.153470 0.214213 1.001465
vt 0.875000 0.500000
vt 0.625000 0.500000
vt 0.625000 0.750000
vt 0.375000 0.750000
vt 0.375000 1.000000
vt 0.625000 0.000000
vt 0.375000 0.000000
vt 0.375000 0.250000
vt 0.375000 0.500000
vt 0.125000 0.500000
vt 0.125000 0.750000
vt 0.625000 0.250000
vt 0.875000 0.750000
vt 0.625000 1.000000
vn 0.0000 -1.0000 0.0000
vn 1.0000 0.0000 -0.0000
vn 0.0000 0.0000 1.0000
vn 0.0000 1.0000 0.0000
vn 0.0000 0.0000 -1.0000
vn -1.0000 0.0000 0.0000
usemtl Material
s off
f 45/71/31 41/72/31 43/73/31
f 43/73/32 44/74/32 48/75/32
f 47/76/33 48/77/33 46/78/33
f 42/79/34 46/80/34 48/81/34
f 41/72/35 42/79/35 44/74/35
f 45/82/36 46/78/36 42/79/36
f 45/71/31 43/73/31 47/83/31
f 43/73/32 48/75/32 47/84/32
f 47/76/33 46/78/33 45/82/33
f 42/79/34 48/81/34 44/74/34
f 41/72/35 44/74/35 43/73/35
f 45/82/36 42/79/36 41/72/36
o Cube.007
v -1.153470 -0.998151 -1.000131
v -1.153470 -0.457675 -1.000131
v -0.999745 -0.998151 -1.000131
v -0.999745 -0.457675 -1.000131
v -1.153470 -0.998151 1.001465
v -1.153470 -0.457675 1.001465
v -0.999745 -0.998151 1.001465
v -0.999745 -0.457675 1.001465
vt 0.875000 0.500000
vt 0.625000 0.500000
vt 0.625000 0.750000
vt 0.375000 0.750000
vt 0.375000 1.000000
vt 0.625000 0.000000
vt 0.375000 0.000000
vt 0.375000 0.250000
vt 0.375000 0.500000
vt 0.125000 0.500000
vt 0.125000 0.750000
vt 0.625000 0.250000
vt 0.875000 0.750000
vt 0.625000 1.000000
vn 0.0000 -1.0000 0.0000
vn 1.0000 0.0000 -0.0000
vn 0.0000 0.0000 1.0000
vn 0.0000 1.0000 0.0000
vn 0.0000 0.0000 -1.0000
vn -1.0000 0.0000 0.0000
usemtl Material
s off
f 53/85/37 49/86/37 51/87/37
f 51/87/38 52/88/38 56/89/38
f 55/90/39 56/91/39 54/92/39
f 50/93/40 54/94/40 56/95/40
f 49/86/41 50/93/41 52/88/41
f 53/96/42 54/92/42 50/93/42
f 53/85/37 51/87/37 55/97/37
f 51/87/38 56/89/38 55/98/38
f 55/90/39 54/92/39 53/96/39
f 50/93/40 56/95/40 52/88/40
f 49/86/41 52/88/41 51/87/41
f 53/96/42 50/93/42 49/86/42
o Cube.008
v -1.153470 -0.326263 -1.000131
v -1.153470 0.214213 -1.000131
v -0.999745 -0.326263 -1.000131
v -0.999745 0.214213 -1.000131
v -1.153470 -0.326263 1.001465
v -1.153470 0.214213 1.001465
v -0.999745 -0.326263 1.001465
v -0.999745 0.214213 1.001465
vt 0.875000 0.500000
vt 0.625000 0.500000
vt 0.625000 0.750000
vt 0.375000 0.750000
vt 0.375000 1.000000
vt 0.625000 0.000000
vt 0.375000 0.000000
vt 0.375000 0.250000
vt 0.375000 0.500000
vt 0.125000 0.500000
vt 0.125000 0.750000
vt 0.625000 0.250000
vt 0.875000 0.750000
vt 0.625000 1.000000
vn 0.0000 -1.0000 0.0000
vn 1.0000 0.0000 -0.0000
vn 0.0000 0.0000 1.0000
vn 0.0000 1.0000 -0.0000
vn 0.0000 0.0000 -1.0000
vn -1.0000 0.0000 0.0000
usemtl Material
s off
f 61/99/43 57/100/43 59/101/43
f 59/101/44 60/102/44 64/103/44
f 63/104/45 64/105/45 62/106/45
f 58/107/46 62/108/46 64/109/46
f 57/100/47 58/107/47 60/102/47
f 61/110/48 62/106/48 58/107/48
f 61/99/43 59/101/43 63/111/43
f 59/101/44 64/103/44 63/112/44
f 63/104/45 62/106/45 61/110/45
f 58/107/46 64/109/46 60/102/46
f 57/100/47 60/102/47 59/101/47
f 61/110/48 58/107/48 57/100/48
o Cube.009
v -1.000377 -0.852049 -0.999333
v -1.000377 -0.999852 -0.999333
v 0.999623 -0.852049 -0.999333
v 0.999623 -0.999852 -0.999333
v -1.000377 -0.852049 1.000667
v -1.000377 -0.999852 1.000667
v 0.999623 -0.852049 1.000667
v 0.999623 -0.999852 1.000667
vt 0.875000 0.500000
vt 0.625000 0.750000
vt 0.625000 0.500000
vt 0.375000 1.000000
vt 0.375000 0.750000
vt 0.625000 0.000000
vt 0.375000 0.250000
vt 0.375000 0.000000
vt 0.375000 0.500000
vt 0.125000 0.750000
vt 0.125000 0.500000
vt 0.625000 0.250000
vt 0.875000 0.750000
vt 0.625000 1.000000
vn 0.0000 1.0000 0.0000
vn 1.0000 0.0000 -0.0000
vn 0.0000 0.0000 1.0000
vn 0.0000 -1.0000 0.0000
vn 0.0000 0.0000 -1.0000
vn -1.0000 0.0000 0.0000
usemtl Material
s off
f 69/113/49 67/114/49 65/115/49
f 67/114/50 72/116/50 68/117/50
f 71/118/51 70/119/51 72/120/51
f 66/121/52 72/122/52 70/123/52
f 65/115/53 68/117/53 66/121/53
f 69/124/54 66/121/54 70/119/54
f 69/113/49 71/125/49 67/114/49
f 67/114/50 71/126/50 72/116/50
f 71/118/51 69/124/51 70/119/51
f 66/121/52 68/117/52 72/122/52
f 65/115/53 67/114/53 68/117/53
f 69/124/54 65/115/54 66/121/54
o Cube.010
v 1.154347 0.356021 1.000412
v 1.154347 0.896497 1.000412
v 1.154347 0.356021 1.154137
v 1.154347 0.896497 1.154137
v -1.154347 0.356021 1.000412
v -1.154347 0.896497 1.000412
v -1.154347 0.356021 1.154137
v -1.154347 0.896497 1.154137
vt 0.875000 0.500000
vt 0.625000 0.500000
vt 0.625000 0.750000
vt 0.375000 0.750000
vt 0.375000 1.000000
vt 0.625000 0.000000
vt 0.375000 0.000000
vt 0.375000 0.250000
vt 0.375000 0.500000
vt 0.125000 0.500000
vt 0.125000 0.750000
vt 0.625000 0.250000
vt 0.875000 0.750000
vt 0.625000 1.000000
vn 0.0000 -1.0000 0.0000
vn 0.0000 0.0000 1.0000
vn -1.0000 0.0000 0.0000
vn 0.0000 1.0000 0.0000
vn 1.0000 0.0000 0.0000
vn 0.0000 0.0000 -1.0000
usemtl Material
s off
f 77/127/55 73/128/55 75/129/55
f 75/129/56 76/130/56 80/131/56
f 79/132/57 80/133/57 78/134/57
f 74/135/58 78/136/58 80/137/58
f 73/128/59 74/135/59 76/130/59
f 77/138/60 78/134/60 74/135/60
f 77/127/55 75/129/55 79/139/55
f 75/129/56 80/131/56 79/140/56
f 79/132/57 78/134/57 77/138/57
f 74/135/58 80/137/58 76/130/58
f 73/128/59 76/130/59 75/129/59
f 77/138/60 74/135/60 73/128/60
o Cube.011
v 1.154347 0.356021 -1.152803
v 1.154347 0.896497 -1.152803
v 1.154347 0.356021 -0.999077
v 1.154347 0.896497 -0.999077
v -1.154347 0.356021 -1.152803
v -1.154347 0.896497 -1.152803
v -1.154347 0.356021 -0.999077
v -1.154347 0.896497 -0.999077
vt 0.875000 0.500000
vt 0.625000 0.500000
vt 0.625000 0.750000
vt 0.375000 0.750000
vt 0.375000 1.000000
vt 0.625000 0.000000
vt 0.375000 0.000000
vt 0.375000 0.250000
vt 0.375000 0.500000
vt 0.125000 0.500000
vt 0.125000 0.750000
vt 0.625000 0.250000
vt 0.875000 0.750000
vt 0.625000 1.000000
vn 0.0000 -1.0000 0.0000
vn 0.0000 0.0000 1.0000
vn -1.0000 0.0000 0.0000
vn 0.0000 1.0000 0.0000
vn 1.0000 0.0000 0.0000
vn 0.0000 0.0000 -1.0000
usemtl Material
s off
f 85/141/61 81/142/61 83/143/61
f 83/143/62 84/144/62 88/145/62
f 87/146/63 88/147/63 86/148/63
f 82/149/64 86/150/64 88/151/64
f 81/142/65 82/149/65 84/144/65
f 85/152/66 86/148/66 82/149/66
f 85/141/61 83/143/61 87/153/61
f 83/143/62 88/145/62 87/154/62
f 87/146/63 86/148/63 85/152/63
f 82/149/64 88/151/64 84/144/64
f 81/142/65 84/144/65 83/143/65
f 85/152/66 82/149/66 81/142/66
o Cube.012
v 0.999745 0.356021 -1.000131
v 0.999745 0.896497 -1.000131
v 1.153470 0.356021 -1.000131
v 1.153470 0.896497 -1.000131
v 0.999745 0.356021 1.001465
v 0.999745 0.896497 1.001465
v 1.153470 0.356021 1.001465
v 1.153470 0.896497 1.001465
vt 0.875000 0.500000
vt 0.625000 0.500000
vt 0.625000 0.750000
vt 0.375000 0.750000
vt 0.375000 1.000000
vt 0.625000 0.000000
vt 0.375000 0.000000
vt 0.375000 0.250000
vt 0.375000 0.500000
vt 0.125000 0.500000
vt 0.125000 0.750000
vt 0.625000 0.250000
vt 0.875000 0.750000
vt 0.625000 1.000000
vn 0.0000 -1.0000 0.0000
vn 1.0000 0.0000 -0.0000
vn 0.0000 0.0000 1.0000
vn 0.0000 1.0000 -0.0000
vn 0.0000 0.0000 -1.0000
vn -1.0000 0.0000 0.0000
usemtl Material
s off
f 93/155/67 89/156/67 91/157/67
f 91/157/68 92/158/68 96/159/68
f 95/160/69 96/161/69 94/162/69
f 90/163/70 94/164/70 96/165/70
f 89/156/71 90/163/71 92/158/71
f 93/166/72 94/162/72 90/163/72
f 93/155/67 91/157/67 95/167/67
f 91/157/68 96/159/68 95/168/68
f 95/160/69 94/162/69 93/166/69
f 90/163/70 96/165/70 92/158/70
f 89/156/71 92/158/71 91/157/71
f 93/166/72 90/163/72 89/156/72
o Cube.013
v -1.153470 0.356021 -1.000131
v -1.153470 0.896497 -1.000131
v -0.999745 0.356021 -1.000131
v -0.999745 0.896497 -1.000131
v -1.153470 0.356021 1.001465
v -1.153470 0.896497 1.001465
v -0.999745 0.356021 1.001465
v -0.999745 0.896497 1.001465
vt 0.875000 0.500000
vt 0.625000 0.500000
vt 0.625000 0.750000
vt 0.375000 0.750000
vt 0.375000 1.000000
vt 0.625000 0.000000
vt 0.375000 0.000000
vt 0.375000 0.250000
vt 0.375000 0.500000
vt 0.125000 0.500000
vt 0.125000 0.750000
vt 0.625000 0.250000
vt 0.875000 0.750000
vt 0.625000 1.000000
vn 0.0000 -1.0000 0.0000
vn 1.0000 0.0000 -0.0000
vn 0.0000 0.0000 1.0000
vn 0.0000 1.0000 0.0000
vn 0.0000 0.0000 -1.0000
vn -1.0000 0.0000 0.0000
usemtl Material
s off
f 101/169/73 97/170/73 99/171/73
f 99/171/74 100/172/74 104/173/74
f 103/174/75 104/175/75 102/176/75
f 98/177/76 102/178/76 104/179/76
f 97/170/77 98/177/77 100/172/77
f 101/180/78 102/176/78 98/177/78
f 101/169/73 99/171/73 103/181/73
f 99/171/74 104/173/74 103/182/74
f 103/174/75 102/176/75 101/180/75
f 98/177/76 104/179/76 100/172/76
f 97/170/77 100/172/77 99/171/77
f 101/180/78 98/177/78 97/170/78
o Cube.001_Cube.014
v -1.000524 -0.812452 -0.998610
v -0.838382 -0.812452 -0.998610
v -1.000524 -0.812452 -0.844885
v -0.838382 -0.812452 -0.844885
v -1.000525 0.505767 -0.998610
v -0.838382 0.505767 -0.998610
v -1.000525 0.505767 -0.844885
v -0.838382 0.505767 -0.844885
vt 0.875000 0.500000
vt 0.625000 0.500000
vt 0.625000 0.750000
vt 0.375000 0.750000
vt 0.375000 1.000000
vt 0.625000 0.000000
vt 0.375000 0.000000
vt 0.375000 0.250000
vt 0.375000 0.500000
vt 0.125000 0.500000
vt 0.125000 0.750000
vt 0.625000 0.250000
vt 0.875000 0.750000
vt 0.625000 1.000000
vn -1.0000 -0.0000 0.0000
vn 0.0000 0.0000 1.0000
vn 0.0000 1.0000 0.0000
vn 1.0000 0.0000 0.0000
vn 0.0000 -1.0000 0.0000
vn 0.0000 0.0000 -1.0000
usemtl Material
s off
f 109/183/79 105/184/79 107/185/79
f 107/185/80 108/186/80 112/187/80
f 111/188/81 112/189/81 110/190/81
f 106/191/82 110/192/82 112/193/82
f 105/184/83 106/191/83 108/186/83
f 109/194/84 110/190/84 106/191/84
f 109/183/79 107/185/79 111/195/79
f 107/185/80 112/187/80 111/196/80
f 111/188/81 110/190/81 109/194/81
f 106/191/82 112/193/82 108/186/82
f 105/184/83 108/186/83 107/185/83
f 109/194/84 106/191/84 105/184/84
o Cube.015_Cube.016
v -1.000524 -0.812452 0.850259
v -0.838382 -0.812452 0.850259
v -1.000524 -0.812452 1.003984
v -0.838382 -0.812452 1.003984
v -1.000525 0.505767 0.850259
v -0.838382 0.505767 0.850259
v -1.000525 0.505767 1.003984
v -0.838382 0.505767 1.003984
vt 0.875000 0.500000
vt 0.625000 0.500000
vt 0.625000 0.750000
vt 0.375000 0.750000
vt 0.375000 1.000000
vt 0.625000 0.000000
vt 0.375000 0.000000
vt 0.375000 0.250000
vt 0.375000 0.500000
vt 0.125000 0.500000
vt 0.125000 0.750000
vt 0.625000 0.250000
vt 0.875000 0.750000
vt 0.625000 1.000000
vn -1.0000 -0.0000 0.0000
vn 0.0000 0.0000 1.0000
vn 0.0000 1.0000 0.0000
vn 1.0000 0.0000 0.0000
vn 0.0000 -1.0000 0.0000
vn 0.0000 0.0000 -1.0000
usemtl Material
s off
f 117/197/85 113/198/85 115/199/85
f 115/199/86 116/200/86 120/201/86
f 119/202/87 120/203/87 118/204/87
f 114/205/88 118/206/88 120/207/88
f 113/198/89 114/205/89 116/200/89
f 117/208/90 118/204/90 114/205/90
f 117/197/85 115/199/85 119/209/85
f 115/199/86 120/201/86 119/210/86
f 119/202/87 118/204/87 117/208/87
f 114/205/88 120/207/88 116/200/88
f 113/198/89 116/200/89 115/199/89
f 117/208/90 114/205/90 113/198/90
o Cube.014_Cube.018
v 0.840200 -0.812452 -0.998610
v 1.002343 -0.812452 -0.998610
v 0.840200 -0.812452 -0.844885
v 1.002343 -0.812452 -0.844885
v 0.840200 0.505767 -0.998610
v 1.002343 0.505767 -0.998610
v 0.840200 0.505767 -0.844885
v 1.002343 0.505767 -0.844885
vt 0.875000 0.500000
vt 0.625000 0.500000
vt 0.625000 0.750000
vt 0.375000 0.750000
vt 0.375000 1.000000
vt 0.625000 0.000000
vt 0.375000 0.000000
vt 0.375000 0.250000
vt 0.375000 0.500000
vt 0.125000 0.500000
vt 0.125000 0.750000
vt 0.625000 0.250000
vt 0.875000 0.750000
vt 0.625000 1.000000
vn -1.0000 -0.0000 0.0000
vn 0.0000 0.0000 1.0000
vn 0.0000 1.0000 0.0000
vn 1.0000 0.0000 0.0000
vn 0.0000 -1.0000 0.0000
vn 0.0000 0.0000 -1.0000
usemtl Material
s off
f 125/211/91 121/212/91 123/213/91
f 123/213/92 124/214/92 128/215/92
f 127/216/93 128/217/93 126/218/93
f 122/219/94 126/220/94 128/221/94
f 121/212/95 122/219/95 124/214/95
f 125/222/96 126/218/96 122/219/96
f 125/211/91 123/213/91 127/223/91
f 123/213/92 128/215/92 127/224/92
f 127/216/93 126/218/93 125/222/93
f 122/219/94 128/221/94 124/214/94
f 121/212/95 124/214/95 123/213/95
f 125/222/96 122/219/96 121/212/96
o Cube.016_Cube.019
v 0.840200 -0.812452 0.850259
v 1.002343 -0.812452 0.850259
v 0.840200 -0.812452 1.003984
v 1.002343 -0.812452 1.003984
v 0.840200 0.505767 0.850259
v 1.002343 0.505767 0.850259
v 0.840200 0.505767 1.003984
v 1.002343 0.505767 1.003984
vt 0.875000 0.500000
vt 0.625000 0.500000
vt 0.625000 0.750000
vt 0.375000 0.750000
vt 0.375000 1.000000
vt 0.625000 0.000000
vt 0.375000 0.000000
vt 0.375000 0.250000
vt 0.375000 0.500000
vt 0.125000 0.500000
vt 0.125000 0.750000
vt 0.625000 0.250000
vt 0.875000 0.750000
vt 0.625000 1.000000
vn -1.0000 -0.0000 0.0000
vn 0.0000 0.0000 1.0000
vn 0.0000 1.0000 0.0000
vn 1.0000 0.0000 0.0000
vn 0.0000 -1.0000 0.0000
vn 0.0000 0.0000 -1.0000
usemtl Material
s off
f 133/225/97 129/226/97 131/227/97
f 131/227/98 132/228/98 136/229/98
f 135/230/99 136/231/99 134/232/99
f 130/233/100 134/234/100 136/235/100
f 129/226/101 130/233/101 132/228/101
f 133/236/102 134/232/102 130/233/102
f 133/225/97 131/227/97 135/237/97
f 131/227/98 136/229/98 135/238/98
f 135/230/99 134/232/99 133/236/99
f 130/233/100 136/235/100 132/228/100
f 129/226/101 132/228/101 131/227/101
f 133/236/102 130/233/102 129/226/102
o Cube.017_Cube.021
v -0.971036 -0.844209 0.971036
v -0.971036 0.844209 0.971036
v -0.971036 -0.844209 -0.971036
v -0.971036 0.844209 -0.971036
v 0.971036 -0.844209 0.971036
v 0.971036 0.844209 0.971036
v 0.971036 -0.844209 -0.971036
v 0.971036 0.844209 -0.971036
vt 1.000954 -0.833922
vt 0.078604 0.088429
vt 0.078604 -0.833922
vt 1.000954 0.088429
vt 0.078604 1.010779
vt 1.000954 1.010779
vt 0.078604 1.933130
vt 1.000954 1.933130
vt 0.078604 2.855480
vt -0.843747 1.933130
vt -0.843747 1.010779
vt 1.923305 1.010779
vt 1.000954 2.855480
vt 1.923305 1.933130
vn -1.0000 0.0000 0.0000
vn 0.0000 0.0000 -1.0000
vn 1.0000 0.0000 0.0000
vn 0.0000 0.0000 1.0000
vn 0.0000 -1.0000 0.0000
vn 0.0000 1.0000 0.0000
usemtl Material.002
s off
f 138/239/103 139/240/103 137/241/103
f 140/242/104 143/243/104 139/240/104
f 144/244/105 141/245/105 143/243/105
f 142/246/106 137/247/106 141/245/106
f 143/243/107 137/248/107 139/249/107
f 140/250/108 142/246/108 144/244/108
f 138/239/103 140/242/103 139/240/103
f 140/242/104 144/244/104 143/243/104
f 144/244/105 142/246/105 141/245/105
f 142/246/106 138/251/106 137/247/106
f 143/243/107 141/245/107 137/248/107
f 140/250/108 138/252/108 142/246/108
