# Blender 4.0.2
# www.blender.org
mtllib error.mtl
o Text
v 0.737175 0.000000 0.000000
v 0.837763 0.000000 0.000000
v 0.837763 0.207783 0.000000
v 0.980200 0.000000 0.000000
v 1.104282 0.000000 0.000000
v 0.957440 0.200441 0.000000
v 0.967473 0.203001 0.000000
v 0.976702 0.205570 0.000000
v 0.985214 0.208184 0.000000
v 0.993090 0.210883 0.000000
v 1.000415 0.213704 0.000000
v 1.007274 0.216685 0.000000
v 1.013751 0.219865 0.000000
v 1.019929 0.223283 0.000000
v 1.025894 0.226976 0.000000
v 1.031728 0.230982 0.000000
v 1.037516 0.235340 0.000000
v 1.043343 0.240088 0.000000
v 1.052307 0.248211 0.000000
v 1.060478 0.256795 0.000000
v 1.067858 0.265843 0.000000
v 1.074451 0.275358 0.000000
v 1.080259 0.285341 0.000000
v 1.085284 0.295797 0.000000
v 1.089530 0.306726 0.000000
v 1.092997 0.318132 0.000000
v 1.095690 0.330018 0.000000
v 1.097610 0.342385 0.000000
v 1.098760 0.355237 0.000000
v 1.099143 0.368576 0.000000
v 1.098731 0.382324 0.000000
v 1.097501 0.395657 0.000000
v 1.095460 0.408556 0.000000
v 1.092617 0.421004 0.000000
v 1.088977 0.432983 0.000000
v 1.084550 0.444475 0.000000
v 1.079343 0.455462 0.000000
v 1.073364 0.465927 0.000000
v 1.066619 0.475851 0.000000
v 1.059118 0.485217 0.000000
v 1.050867 0.494007 0.000000
v 1.041874 0.502203 0.000000
v 1.032969 0.509321 0.000000
v 1.023801 0.515646 0.000000
v 1.014261 0.521212 0.000000
v 1.004239 0.526051 0.000000
v 0.993625 0.530197 0.000000
v 0.982311 0.533682 0.000000
v 0.970186 0.536540 0.000000
v 0.957140 0.538805 0.000000
v 0.943065 0.540508 0.000000
v 0.927850 0.541684 0.000000
v 0.911386 0.542365 0.000000
v 0.893563 0.542584 0.000000
v 0.737175 0.542584 0.000000
v 0.837763 0.283407 0.000000
v 0.837763 0.446402 0.000000
v 0.882550 0.446402 0.000000
v 0.893860 0.446293 0.000000
v 0.904325 0.445957 0.000000
v 0.913983 0.445381 0.000000
v 0.922877 0.444553 0.000000
v 0.931047 0.443460 0.000000
v 0.938533 0.442089 0.000000
v 0.945378 0.440427 0.000000
v 0.951620 0.438462 0.000000
v 0.957302 0.436181 0.000000
v 0.962463 0.433571 0.000000
v 0.967146 0.430619 0.000000
v 0.971390 0.427313 0.000000
v 0.975611 0.423674 0.000000
v 0.979466 0.419736 0.000000
v 0.982954 0.415508 0.000000
v 0.986074 0.410997 0.000000
v 0.988827 0.406210 0.000000
v 0.991213 0.401156 0.000000
v 0.993232 0.395842 0.000000
v 0.994884 0.390276 0.000000
v 0.996169 0.384465 0.000000
v 0.997087 0.378416 0.000000
v 0.997638 0.372138 0.000000
v 0.997821 0.365639 0.000000
v 0.997126 0.351990 0.000000
v 0.995013 0.339663 0.000000
v 0.991443 0.328630 0.000000
v 0.986373 0.318867 0.000000
v 0.979763 0.310348 0.000000
v 0.971573 0.303047 0.000000
v 0.961761 0.296940 0.000000
v 0.950288 0.292000 0.000000
v 0.937111 0.288202 0.000000
v 0.922190 0.285521 0.000000
v 0.905485 0.283931 0.000000
v 0.886955 0.283407 0.000000
v 0.378879 0.552129 0.000000
v 0.339313 0.549625 0.000000
v 0.301582 0.542313 0.000000
v 0.265993 0.530493 0.000000
v 0.232852 0.514467 0.000000
v 0.202463 0.494535 0.000000
v 0.175134 0.470999 0.000000
v 0.151170 0.444158 0.000000
v 0.130877 0.414314 0.000000
v 0.114561 0.381769 0.000000
v 0.102528 0.346821 0.000000
v 0.095084 0.309773 0.000000
v 0.092535 0.270925 0.000000
v 0.095112 0.232400 0.000000
v 0.102627 0.195593 0.000000
v 0.114756 0.160816 0.000000
v 0.131176 0.128379 0.000000
v 0.151563 0.098593 0.000000
v 0.175593 0.071769 0.000000
v 0.202942 0.048219 0.000000
v 0.233287 0.028254 0.000000
v 0.266303 0.012183 0.000000
v 0.301667 0.000320 0.000000
v 0.339056 -0.007027 -0.000000
v 0.378144 -0.009545 -0.000000
v 0.416809 -0.007041 -0.000000
v 0.453677 0.000269 0.000000
v 0.488449 0.012080 0.000000
v 0.520827 0.028091 0.000000
v 0.550513 0.047996 0.000000
v 0.577208 0.071494 0.000000
v 0.600615 0.098281 0.000000
v 0.620435 0.128052 0.000000
v 0.636370 0.160506 0.000000
v 0.648121 0.195338 0.000000
v 0.655391 0.232246 0.000000
v 0.657880 0.270925 0.000000
v 0.655349 0.309310 0.000000
v 0.647972 0.346056 0.000000
v 0.636072 0.380839 0.000000
v 0.619973 0.413336 0.000000
v 0.599999 0.443221 0.000000
v 0.576474 0.470173 0.000000
v 0.549722 0.493866 0.000000
v 0.520066 0.513977 0.000000
v 0.487829 0.530183 0.000000
v 0.453337 0.542159 0.000000
v 0.416912 0.549583 0.000000
v 0.377410 0.455213 0.000000
v 0.402065 0.453563 0.000000
v 0.425607 0.448748 0.000000
v 0.447837 0.440965 0.000000
v 0.468562 0.430413 0.000000
v 0.487583 0.417291 0.000000
v 0.504705 0.401799 0.000000
v 0.519731 0.384134 0.000000
v 0.532465 0.364497 0.000000
v 0.542712 0.343085 0.000000
v 0.550273 0.320097 0.000000
v 0.554954 0.295733 0.000000
v 0.556558 0.270191 0.000000
v 0.554997 0.244538 0.000000
v 0.550426 0.220193 0.000000
v 0.543021 0.197332 0.000000
v 0.532955 0.176130 0.000000
v 0.520400 0.156764 0.000000
v 0.505531 0.139409 0.000000
v 0.488520 0.124242 0.000000
v 0.469540 0.111437 0.000000
v 0.448767 0.101172 0.000000
v 0.426371 0.093623 0.000000
v 0.402528 0.088964 0.000000
v 0.377410 0.087372 0.000000
v 0.352206 0.089020 0.000000
v 0.328123 0.093830 0.000000
v 0.305365 0.101597 0.000000
v 0.284138 0.112117 0.000000
v 0.264644 0.125187 0.000000
v 0.247087 0.140602 0.000000
v 0.231672 0.158159 0.000000
v 0.218602 0.177653 0.000000
v 0.208082 0.198880 0.000000
v 0.200315 0.221638 0.000000
v 0.195505 0.245720 0.000000
v 0.193857 0.270925 0.000000
v 0.195477 0.296607 0.000000
v 0.200213 0.321032 0.000000
v 0.207875 0.344014 0.000000
v 0.218276 0.365367 0.000000
v 0.231226 0.384905 0.000000
v 0.246536 0.402441 0.000000
v 0.264019 0.417790 0.000000
v 0.283485 0.430766 0.000000
v 0.304746 0.441182 0.000000
v 0.327613 0.448853 0.000000
v 0.351897 0.453592 0.000000
v -0.305409 0.000000 0.000000
v -0.204822 0.000000 0.000000
v -0.204822 0.207783 0.000000
v -0.062384 0.000000 0.000000
v 0.061698 0.000000 0.000000
v -0.085145 0.200441 0.000000
v -0.075112 0.203001 0.000000
v -0.065882 0.205570 0.000000
v -0.057371 0.208184 0.000000
v -0.049495 0.210883 0.000000
v -0.042169 0.213704 0.000000
v -0.035310 0.216685 0.000000
v -0.028833 0.219865 0.000000
v -0.022655 0.223283 0.000000
v -0.016691 0.226976 0.000000
v -0.010856 0.230982 0.000000
v -0.005068 0.235340 0.000000
v 0.000758 0.240088 0.000000
v 0.009722 0.248211 0.000000
v 0.017893 0.256795 0.000000
v 0.025274 0.265843 0.000000
v 0.031867 0.275358 0.000000
v 0.037675 0.285341 0.000000
v 0.042700 0.295797 0.000000
v 0.046945 0.306726 0.000000
v 0.050413 0.318132 0.000000
v 0.053106 0.330018 0.000000
v 0.055026 0.342385 0.000000
v 0.056176 0.355237 0.000000
v 0.056559 0.368576 0.000000
v 0.056147 0.382324 0.000000
v 0.054917 0.395657 0.000000
v 0.052876 0.408556 0.000000
v 0.050032 0.421004 0.000000
v 0.046393 0.432983 0.000000
v 0.041966 0.444475 0.000000
v 0.036759 0.455462 0.000000
v 0.030779 0.465927 0.000000
v 0.024035 0.475851 0.000000
v 0.016534 0.485217 0.000000
v 0.008283 0.494007 0.000000
v -0.000710 0.502203 0.000000
v -0.009615 0.509321 0.000000
v -0.018783 0.515646 0.000000
v -0.028323 0.521212 0.000000
v -0.038345 0.526051 0.000000
v -0.048959 0.530197 0.000000
v -0.060273 0.533682 0.000000
v -0.072398 0.536540 0.000000
v -0.085444 0.538805 0.000000
v -0.099519 0.540508 0.000000
v -0.114734 0.541684 0.000000
v -0.131198 0.542365 0.000000
v -0.149022 0.542584 0.000000
v -0.305409 0.542584 0.000000
v -0.204822 0.283407 0.000000
v -0.204822 0.446402 0.000000
v -0.160035 0.446402 0.000000
v -0.148724 0.446293 0.000000
v -0.138260 0.445957 0.000000
v -0.128601 0.445381 0.000000
v -0.119707 0.444553 0.000000
v -0.111538 0.443460 0.000000
v -0.104051 0.442089 0.000000
v -0.097207 0.440427 0.000000
v -0.090964 0.438462 0.000000
v -0.085283 0.436181 0.000000
v -0.080121 0.433571 0.000000
v -0.075439 0.430619 0.000000
v -0.071195 0.427313 0.000000
v -0.066973 0.423674 0.000000
v -0.063118 0.419736 0.000000
v -0.059631 0.415508 0.000000
v -0.056511 0.410997 0.000000
v -0.053757 0.406210 0.000000
v -0.051371 0.401156 0.000000
v -0.049352 0.395842 0.000000
v -0.047700 0.390276 0.000000
v -0.046415 0.384465 0.000000
v -0.045497 0.378416 0.000000
v -0.044947 0.372138 0.000000
v -0.044763 0.365639 0.000000
v -0.045458 0.351990 0.000000
v -0.047571 0.339663 0.000000
v -0.051142 0.328630 0.000000
v -0.056211 0.318867 0.000000
v -0.062821 0.310348 0.000000
v -0.071011 0.303047 0.000000
v -0.080823 0.296940 0.000000
v -0.092297 0.292000 0.000000
v -0.105474 0.288202 0.000000
v -0.120394 0.285521 0.000000
v -0.137099 0.283931 0.000000
v -0.155629 0.283407 0.000000
v -0.731253 0.000000 0.000000
v -0.630666 0.000000 0.000000
v -0.630666 0.207783 0.000000
v -0.488228 0.000000 0.000000
v -0.364146 0.000000 0.000000
v -0.510989 0.200441 0.000000
v -0.500956 0.203001 0.000000
v -0.491726 0.205570 0.000000
v -0.483215 0.208184 0.000000
v -0.475339 0.210883 0.000000
v -0.468013 0.213704 0.000000
v -0.461154 0.216685 0.000000
v -0.454678 0.219865 0.000000
v -0.448499 0.223283 0.000000
v -0.442535 0.226976 0.000000
v -0.436701 0.230982 0.000000
v -0.430912 0.235340 0.000000
v -0.425086 0.240088 0.000000
v -0.416122 0.248211 0.000000
v -0.407951 0.256795 0.000000
v -0.400570 0.265843 0.000000
v -0.393977 0.275358 0.000000
v -0.388169 0.285341 0.000000
v -0.383144 0.295797 0.000000
v -0.378899 0.306726 0.000000
v -0.375431 0.318132 0.000000
v -0.372739 0.330018 0.000000
v -0.370819 0.342385 0.000000
v -0.369669 0.355237 0.000000
v -0.369286 0.368576 0.000000
v -0.369698 0.382324 0.000000
v -0.370928 0.395657 0.000000
v -0.372968 0.408556 0.000000
v -0.375812 0.421004 0.000000
v -0.379451 0.432983 0.000000
v -0.383878 0.444475 0.000000
v -0.389085 0.455462 0.000000
v -0.395065 0.465927 0.000000
v -0.401809 0.475851 0.000000
v -0.409311 0.485217 0.000000
v -0.417562 0.494007 0.000000
v -0.426554 0.502203 0.000000
v -0.435460 0.509321 0.000000
v -0.444628 0.515646 0.000000
v -0.454168 0.521212 0.000000
v -0.464190 0.526051 0.000000
v -0.474803 0.530197 0.000000
v -0.486118 0.533682 0.000000
v -0.498243 0.536540 0.000000
v -0.511288 0.538805 0.000000
v -0.525364 0.540508 0.000000
v -0.540579 0.541684 0.000000
v -0.557043 0.542365 0.000000
v -0.574866 0.542584 0.000000
v -0.731253 0.542584 0.000000
v -0.630666 0.283407 0.000000
v -0.630666 0.446402 0.000000
v -0.585879 0.446402 0.000000
v -0.574568 0.446293 0.000000
v -0.564104 0.445957 0.000000
v -0.554445 0.445381 0.000000
v -0.545552 0.444553 0.000000
v -0.537382 0.443460 0.000000
v -0.529895 0.442089 0.000000
v -0.523051 0.440427 0.000000
v -0.516809 0.438462 0.000000
v -0.511127 0.436181 0.000000
v -0.505965 0.433571 0.000000
v -0.501283 0.430619 0.000000
v -0.497039 0.427313 0.000000
v -0.492817 0.423674 0.000000
v -0.488963 0.419736 0.000000
v -0.485475 0.415508 0.000000
v -0.482355 0.410997 0.000000
v -0.479601 0.406210 0.000000
v -0.477215 0.401156 0.000000
v -0.475196 0.395842 0.000000
v -0.473544 0.390276 0.000000
v -0.472259 0.384465 0.000000
v -0.471341 0.378416 0.000000
v -0.470791 0.372138 0.000000
v -0.470607 0.365639 0.000000
v -0.471302 0.351990 0.000000
v -0.473415 0.339663 0.000000
v -0.476986 0.328630 0.000000
v -0.482056 0.318867 0.000000
v -0.488665 0.310348 0.000000
v -0.496855 0.303047 0.000000
v -0.506667 0.296940 0.000000
v -0.518141 0.292000 0.000000
v -0.531318 0.288202 0.000000
v -0.546238 0.285521 0.000000
v -0.562943 0.283931 0.000000
v -0.581474 0.283407 0.000000
v -1.113045 0.000000 0.000000
v -0.821562 0.000000 0.000000
v -0.821562 0.096182 0.000000
v -1.012458 0.096182 0.000000
v -1.012458 0.222467 0.000000
v -0.829638 0.222467 0.000000
v -0.829638 0.318649 0.000000
v -1.012458 0.318649 0.000000
v -1.012458 0.446402 0.000000
v -0.821562 0.446402 0.000000
v -0.821562 0.542584 0.000000
v -1.113045 0.542584 0.000000
v 0.737175 -0.000000 0.212683
v 0.837763 -0.000000 0.212683
v 0.837763 0.207783 0.212683
v 0.980200 -0.000000 0.212683
v 1.104282 -0.000000 0.212683
v 0.957440 0.200441 0.212683
v 0.967473 0.203001 0.212683
v 0.976702 0.205570 0.212683
v 0.985214 0.208184 0.212683
v 0.993090 0.210883 0.212683
v 1.000415 0.213704 0.212683
v 1.007274 0.216685 0.212683
v 1.013751 0.219865 0.212683
v 1.019929 0.223283 0.212683
v 1.025894 0.226975 0.212683
v 1.031728 0.230982 0.212683
v 1.037516 0.235340 0.212683
v 1.043343 0.240088 0.212683
v 1.052307 0.248211 0.212683
v 1.060478 0.256795 0.212683
v 1.067858 0.265843 0.212683
v 1.074451 0.275358 0.212683
v 1.080259 0.285341 0.212683
v 1.085284 0.295797 0.212683
v 1.089530 0.306726 0.212683
v 1.092997 0.318132 0.212683
v 1.095690 0.330018 0.212683
v 1.097610 0.342385 0.212683
v 1.098760 0.355237 0.212683
v 1.099143 0.368576 0.212683
v 1.098731 0.382324 0.212683
v 1.097501 0.395657 0.212683
v 1.095460 0.408556 0.212683
v 1.092617 0.421004 0.212683
v 1.088977 0.432983 0.212683
v 1.084550 0.444475 0.212683
v 1.079343 0.455462 0.212683
v 1.073364 0.465927 0.212683
v 1.066619 0.475851 0.212683
v 1.059118 0.485217 0.212683
v 1.050867 0.494007 0.212683
v 1.041874 0.502203 0.212683
v 1.032969 0.509321 0.212683
v 1.023801 0.515646 0.212683
v 1.014261 0.521212 0.212683
v 1.004239 0.526051 0.212683
v 0.993625 0.530197 0.212683
v 0.982311 0.533682 0.212683
v 0.970186 0.536540 0.212683
v 0.957140 0.538805 0.212683
v 0.943065 0.540508 0.212683
v 0.927850 0.541684 0.212683
v 0.911386 0.542365 0.212683
v 0.893563 0.542584 0.212683
v 0.737175 0.542584 0.212683
v 0.837763 0.283407 0.212683
v 0.837763 0.446402 0.212683
v 0.882550 0.446402 0.212683
v 0.893860 0.446293 0.212683
v 0.904325 0.445957 0.212683
v 0.913983 0.445381 0.212683
v 0.922877 0.444553 0.212683
v 0.931047 0.443460 0.212683
v 0.938533 0.442089 0.212683
v 0.945378 0.440427 0.212683
v 0.951620 0.438462 0.212683
v 0.957302 0.436181 0.212683
v 0.962463 0.433571 0.212683
v 0.967146 0.430619 0.212683
v 0.971390 0.427313 0.212683
v 0.975611 0.423674 0.212683
v 0.979466 0.419736 0.212683
v 0.982954 0.415508 0.212683
v 0.986074 0.410997 0.212683
v 0.988827 0.406210 0.212683
v 0.991213 0.401156 0.212683
v 0.993232 0.395842 0.212683
v 0.994884 0.390276 0.212683
v 0.996169 0.384465 0.212683
v 0.997087 0.378416 0.212683
v 0.997638 0.372138 0.212683
v 0.997821 0.365639 0.212683
v 0.997126 0.351990 0.212683
v 0.995013 0.339663 0.212683
v 0.991443 0.328630 0.212683
v 0.986373 0.318867 0.212683
v 0.979763 0.310348 0.212683
v 0.971573 0.303047 0.212683
v 0.961761 0.296940 0.212683
v 0.950288 0.292000 0.212683
v 0.937111 0.288202 0.212683
v 0.922190 0.285521 0.212683
v 0.905485 0.283931 0.212683
v 0.886955 0.283407 0.212683
v 0.378879 0.552129 0.212683
v 0.339313 0.549625 0.212683
v 0.301582 0.542313 0.212683
v 0.265993 0.530493 0.212683
v 0.232852 0.514467 0.212683
v 0.202463 0.494535 0.212683
v 0.175134 0.470999 0.212683
v 0.151170 0.444158 0.212683
v 0.130877 0.414314 0.212683
v 0.114561 0.381769 0.212683
v 0.102528 0.346821 0.212683
v 0.095084 0.309773 0.212683
v 0.092535 0.270925 0.212683
v 0.095112 0.232400 0.212683
v 0.102627 0.195593 0.212683
v 0.114756 0.160816 0.212683
v 0.131176 0.128379 0.212683
v 0.151563 0.098593 0.212683
v 0.175593 0.071769 0.212683
v 0.202942 0.048219 0.212683
v 0.233287 0.028254 0.212683
v 0.266303 0.012183 0.212683
v 0.301667 0.000320 0.212683
v 0.339056 -0.007027 0.212683
v 0.378144 -0.009545 0.212683
v 0.416809 -0.007041 0.212683
v 0.453677 0.000269 0.212683
v 0.488449 0.012080 0.212683
v 0.520827 0.028090 0.212683
v 0.550513 0.047996 0.212683
v 0.577208 0.071494 0.212683
v 0.600615 0.098281 0.212683
v 0.620435 0.128052 0.212683
v 0.636370 0.160506 0.212683
v 0.648121 0.195338 0.212683
v 0.655391 0.232246 0.212683
v 0.657880 0.270925 0.212683
v 0.655349 0.309310 0.212683
v 0.647972 0.346056 0.212683
v 0.636072 0.380839 0.212683
v 0.619973 0.413336 0.212683
v 0.599999 0.443221 0.212683
v 0.576474 0.470173 0.212683
v 0.549722 0.493866 0.212683
v 0.520066 0.513977 0.212683
v 0.487829 0.530183 0.212683
v 0.453337 0.542159 0.212683
v 0.416912 0.549583 0.212683
v 0.377410 0.455213 0.212683
v 0.402065 0.453563 0.212683
v 0.425607 0.448748 0.212683
v 0.447837 0.440965 0.212683
v 0.468562 0.430413 0.212683
v 0.487583 0.417291 0.212683
v 0.504705 0.401799 0.212683
v 0.519731 0.384134 0.212683
v 0.532465 0.364497 0.212683
v 0.542712 0.343085 0.212683
v 0.550273 0.320097 0.212683
v 0.554954 0.295733 0.212683
v 0.556558 0.270191 0.212683
v 0.554997 0.244538 0.212683
v 0.550426 0.220193 0.212683
v 0.543021 0.197332 0.212683
v 0.532955 0.176130 0.212683
v 0.520400 0.156764 0.212683
v 0.505531 0.139409 0.212683
v 0.488520 0.124242 0.212683
v 0.469540 0.111437 0.212683
v 0.448767 0.101172 0.212683
v 0.426371 0.093623 0.212683
v 0.402528 0.088964 0.212683
v 0.377410 0.087372 0.212683
v 0.352206 0.089020 0.212683
v 0.328123 0.093830 0.212683
v 0.305365 0.101597 0.212683
v 0.284138 0.112117 0.212683
v 0.264644 0.125187 0.212683
v 0.247087 0.140602 0.212683
v 0.231672 0.158159 0.212683
v 0.218602 0.177653 0.212683
v 0.208082 0.198880 0.212683
v 0.200315 0.221638 0.212683
v 0.195505 0.245720 0.212683
v 0.193857 0.270925 0.212683
v 0.195477 0.296607 0.212683
v 0.200213 0.321032 0.212683
v 0.207875 0.344014 0.212683
v 0.218276 0.365367 0.212683
v 0.231226 0.384905 0.212683
v 0.246536 0.402441 0.212683
v 0.264019 0.417790 0.212683
v 0.283485 0.430766 0.212683
v 0.304746 0.441182 0.212683
v 0.327613 0.448853 0.212683
v 0.351897 0.453592 0.212683
v -0.305409 -0.000000 0.212683
v -0.204822 -0.000000 0.212683
v -0.204822 0.207783 0.212683
v -0.062384 -0.000000 0.212683
v 0.061698 -0.000000 0.212683
v -0.085145 0.200441 0.212683
v -0.075112 0.203001 0.212683
v -0.065882 0.205570 0.212683
v -0.057371 0.208184 0.212683
v -0.049495 0.210883 0.212683
v -0.042169 0.213704 0.212683
v -0.035310 0.216685 0.212683
v -0.028833 0.219865 0.212683
v -0.022655 0.223283 0.212683
v -0.016691 0.226975 0.212683
v -0.010856 0.230982 0.212683
v -0.005068 0.235340 0.212683
v 0.000758 0.240088 0.212683
v 0.009722 0.248211 0.212683
v 0.017893 0.256795 0.212683
v 0.025274 0.265843 0.212683
v 0.031867 0.275358 0.212683
v 0.037675 0.285341 0.212683
v 0.042700 0.295797 0.212683
v 0.046945 0.306726 0.212683
v 0.050413 0.318132 0.212683
v 0.053106 0.330018 0.212683
v 0.055026 0.342385 0.212683
v 0.056176 0.355237 0.212683
v 0.056559 0.368576 0.212683
v 0.056147 0.382324 0.212683
v 0.054917 0.395657 0.212683
v 0.052876 0.408556 0.212683
v 0.050032 0.421004 0.212683
v 0.046393 0.432983 0.212683
v 0.041966 0.444475 0.212683
v 0.036759 0.455462 0.212683
v 0.030779 0.465927 0.212683
v 0.024035 0.475851 0.212683
v 0.016534 0.485217 0.212683
v 0.008283 0.494007 0.212683
v -0.000710 0.502203 0.212683
v -0.009615 0.509321 0.212683
v -0.018783 0.515646 0.212683
v -0.028323 0.521212 0.212683
v -0.038345 0.526051 0.212683
v -0.048959 0.530197 0.212683
v -0.060273 0.533682 0.212683
v -0.072398 0.536540 0.212683
v -0.085444 0.538805 0.212683
v -0.099519 0.540508 0.212683
v -0.114734 0.541684 0.212683
v -0.131198 0.542365 0.212683
v -0.149022 0.542584 0.212683
v -0.305409 0.542584 0.212683
v -0.204822 0.283407 0.212683
v -0.204822 0.446402 0.212683
v -0.160035 0.446402 0.212683
v -0.148724 0.446293 0.212683
v -0.138260 0.445957 0.212683
v -0.128601 0.445381 0.212683
v -0.119707 0.444553 0.212683
v -0.111538 0.443460 0.212683
v -0.104051 0.442089 0.212683
v -0.097207 0.440427 0.212683
v -0.090964 0.438462 0.212683
v -0.085283 0.436181 0.212683
v -0.080121 0.433571 0.212683
v -0.075439 0.430619 0.212683
v -0.071195 0.427313 0.212683
v -0.066973 0.423674 0.212683
v -0.063118 0.419736 0.212683
v -0.059631 0.415508 0.212683
v -0.056511 0.410997 0.212683
v -0.053757 0.406210 0.212683
v -0.051371 0.401156 0.212683
v -0.049352 0.395842 0.212683
v -0.047700 0.390276 0.212683
v -0.046415 0.384465 0.212683
v -0.045497 0.378416 0.212683
v -0.044947 0.372138 0.212683
v -0.044763 0.365639 0.212683
v -0.045458 0.351990 0.212683
v -0.047571 0.339663 0.212683
v -0.051142 0.328630 0.212683
v -0.056211 0.318867 0.212683
v -0.062821 0.310348 0.212683
v -0.071011 0.303047 0.212683
v -0.080823 0.296940 0.212683
v -0.092297 0.292000 0.212683
v -0.105474 0.288202 0.212683
v -0.120394 0.285521 0.212683
v -0.137099 0.283931 0.212683
v -0.155629 0.283407 0.212683
v -0.731253 -0.000000 0.212683
v -0.630666 -0.000000 0.212683
v -0.630666 0.207783 0.212683
v -0.488228 -0.000000 0.212683
v -0.364146 -0.000000 0.212683
v -0.510989 0.200441 0.212683
v -0.500956 0.203001 0.212683
v -0.491726 0.205570 0.212683
v -0.483215 0.208184 0.212683
v -0.475339 0.210883 0.212683
v -0.468013 0.213704 0.212683
v -0.461154 0.216685 0.212683
v -0.454678 0.219865 0.212683
v -0.448499 0.223283 0.212683
v -0.442535 0.226975 0.212683
v -0.436701 0.230982 0.212683
v -0.430912 0.235340 0.212683
v -0.425086 0.240088 0.212683
v -0.416122 0.248211 0.212683
v -0.407951 0.256795 0.212683
v -0.400570 0.265843 0.212683
v -0.393977 0.275358 0.212683
v -0.388169 0.285341 0.212683
v -0.383144 0.295797 0.212683
v -0.378899 0.306726 0.212683
v -0.375431 0.318132 0.212683
v -0.372739 0.330018 0.212683
v -0.370819 0.342385 0.212683
v -0.369669 0.355237 0.212683
v -0.369286 0.368576 0.212683
v -0.369698 0.382324 0.212683
v -0.370928 0.395657 0.212683
v -0.372968 0.408556 0.212683
v -0.375812 0.421004 0.212683
v -0.379451 0.432983 0.212683
v -0.383878 0.444475 0.212683
v -0.389085 0.455462 0.212683
v -0.395065 0.465927 0.212683
v -0.401809 0.475851 0.212683
v -0.409311 0.485217 0.212683
v -0.417562 0.494007 0.212683
v -0.426554 0.502203 0.212683
v -0.435460 0.509321 0.212683
v -0.444628 0.515646 0.212683
v -0.454168 0.521212 0.212683
v -0.464190 0.526051 0.212683
v -0.474803 0.530197 0.212683
v -0.486118 0.533682 0.212683
v -0.498243 0.536540 0.212683
v -0.511288 0.538805 0.212683
v -0.525364 0.540508 0.212683
v -0.540579 0.541684 0.212683
v -0.557043 0.542365 0.212683
v -0.574866 0.542584 0.212683
v -0.731253 0.542584 0.212683
v -0.630666 0.283407 0.212683
v -0.630666 0.446402 0.212683
v -0.585879 0.446402 0.212683
v -0.574568 0.446293 0.212683
v -0.564104 0.445957 0.212683
v -0.554445 0.445381 0.212683
v -0.545552 0.444553 0.212683
v -0.537382 0.443460 0.212683
v -0.529895 0.442089 0.212683
v -0.523051 0.440427 0.212683
v -0.516809 0.438462 0.212683
v -0.511127 0.436181 0.212683
v -0.505965 0.433571 0.212683
v -0.501283 0.430619 0.212683
v -0.497039 0.427313 0.212683
v -0.492817 0.423674 0.212683
v -0.488963 0.419736 0.212683
v -0.485475 0.415508 0.212683
v -0.482355 0.410997 0.212683
v -0.479601 0.406210 0.212683
v -0.477215 0.401156 0.212683
v -0.475196 0.395842 0.212683
v -0.473544 0.390276 0.212683
v -0.472259 0.384465 0.212683
v -0.471341 0.378416 0.212683
v -0.470791 0.372138 0.212683
v -0.470607 0.365639 0.212683
v -0.471302 0.351990 0.212683
v -0.473415 0.339663 0.212683
v -0.476986 0.328630 0.212683
v -0.482056 0.318867 0.212683
v -0.488665 0.310348 0.212683
v -0.496855 0.303047 0.212683
v -0.506667 0.296940 0.212683
v -0.518141 0.292000 0.212683
v -0.531318 0.288202 0.212683
v -0.546238 0.285521 0.212683
v -0.562943 0.283931 0.212683
v -0.581474 0.283407 0.212683
v -1.113045 -0.000000 0.212683
v -0.821562 -0.000000 0.212683
v -0.821562 0.096182 0.212683
v -1.012458 0.096182 0.212683
v -1.012458 0.222467 0.212683
v -0.829638 0.222467 0.212683
v -0.829638 0.318649 0.212683
v -1.012458 0.318649 0.212683
v -1.012458 0.446402 0.212683
v -0.821562 0.446402 0.212683
v -0.821562 0.542584 0.212683
v -1.113045 0.542584 0.212683
vn -0.0000 -0.0000 -1.0000
vn -0.0000 -0.0000 1.0000
vn 0.0002 -0.0000 1.0000
vn -0.0001 -0.0000 1.0000
vn 0.7291 0.6844 -0.0000
vn 0.7534 0.6576 -0.0000
vn 0.6015 -0.7989 -0.0000
vn 0.9568 0.2907 -0.0000
vn -0.9996 -0.0282 -0.0000
vn 0.1710 0.9853 -0.0000
vn 0.0770 0.9970 -0.0000
vn 0.4840 -0.8751 -0.0000
vn -0.8922 -0.4516 -0.0000
vn 0.8644 -0.5028 -0.0000
vn -0.8875 0.4608 -0.0000
vn 0.7805 0.6251 -0.0000
vn 0.3986 -0.9171 -0.0000
vn 0.6244 0.7811 -0.0000
vn -1.0000 -0.0000 -0.0000
vn 0.7533 -0.6577 -0.0000
vn -0.5332 -0.8460 -0.0000
vn -0.0283 0.9996 -0.0000
vn 0.7243 -0.6895 -0.0000
vn -0.2004 -0.9797 -0.0000
vn -0.9020 -0.4317 -0.0000
vn 0.8219 -0.5696 -0.0000
vn -0.3954 0.9185 -0.0000
vn -0.3726 -0.9280 -0.0000
vn -0.0321 -0.9995 -0.0000
vn -0.8391 0.5440 -0.0000
vn 0.1201 0.9928 -0.0000
vn -0.0643 -0.9979 -0.0000
vn -0.0000 -1.0000 -0.0000
vn 0.2944 0.9557 -0.0000
vn -0.9499 -0.3125 -0.0000
vn 0.9877 0.1563 -0.0000
vn 0.9996 0.0299 -0.0000
vn -0.9348 -0.3551 -0.0000
vn 0.9996 -0.0287 -0.0000
vn 0.5569 -0.8306 -0.0000
vn 0.0653 0.9979 -0.0000
vn -0.0097 -1.0000 -0.0000
vn -0.0000 1.0000 -0.0000
vn -0.3003 -0.9539 -0.0000
vn -0.7594 0.6506 -0.0000
vn 0.8324 -0.5542 -0.0000
vn 0.8271 0.5621 -0.0000
vn -0.7459 0.6660 -0.0000
vn -0.9514 0.3079 -0.0000
vn 0.8683 0.4961 -0.0000
vn -0.8668 -0.4986 -0.0000
vn -0.1801 -0.9836 -0.0000
vn 0.8961 0.4439 -0.0000
vn -0.0947 0.9955 -0.0000
vn -0.4512 -0.8924 -0.0000
vn 0.8960 0.4440 -0.0000
vn -0.8224 -0.5689 -0.0000
vn -0.9442 -0.3293 -0.0000
vn 0.8335 -0.5525 -0.0000
vn -0.9987 0.0509 -0.0000
vn -0.7146 -0.6995 -0.0000
vn 0.9464 0.3230 -0.0000
vn -0.6526 0.7577 -0.0000
vn -0.9043 -0.4270 -0.0000
vn 0.2294 0.9733 -0.0000
vn 0.4348 0.9005 -0.0000
vn -0.9856 0.1689 -0.0000
vn -0.8390 -0.5441 -0.0000
vn -0.1928 -0.9812 -0.0000
vn -0.9887 -0.1500 -0.0000
vn 1.0000 -0.0000 -0.0000
vn 0.0634 -0.9980 -0.0000
vn 0.0123 0.9999 -0.0000
vn -0.9034 0.4289 -0.0000
vn -0.2769 0.9609 -0.0000
vn -0.9798 -0.2001 -0.0000
vn -0.6654 0.7465 -0.0000
vn 0.3593 -0.9332 -0.0000
vn -0.1769 0.9842 -0.0000
vn -0.1326 -0.9912 -0.0000
vn -0.3181 -0.9481 -0.0000
vn -0.2359 -0.9718 -0.0000
vn 0.3241 -0.9460 -0.0000
vn -0.3152 0.9490 -0.0000
vn 0.7530 -0.6580 -0.0000
vn 0.6715 -0.7410 -0.0000
vn -0.6529 -0.7574 -0.0000
vn 0.9753 -0.2209 -0.0000
vn -0.5485 0.8362 -0.0000
vn 0.6317 -0.7752 -0.0000
vn -0.0927 -0.9957 -0.0000
vn -0.0633 0.9980 -0.0000
vn -0.9804 0.1970 -0.0000
vn 0.9462 0.3237 -0.0000
vn -0.7714 -0.6363 -0.0000
vn -0.9764 -0.2159 -0.0000
vn 0.9568 -0.2909 -0.0000
vn -0.6145 -0.7889 -0.0000
vn -0.4353 0.9003 -0.0000
vn 0.1997 0.9799 -0.0000
vn 0.9749 0.2227 -0.0000
vn -0.9587 -0.2845 -0.0000
vn -0.7617 -0.6479 -0.0000
vn 0.6736 0.7391 -0.0000
vn -0.9979 0.0655 -0.0000
vn 0.8990 -0.4379 -0.0000
vn -0.6525 -0.7578 -0.0000
vn 0.6607 -0.7506 -0.0000
vn -0.9978 -0.0667 -0.0000
vn -0.7901 0.6130 -0.0000
vn -0.9962 -0.0874 -0.0000
vn -0.9513 0.3082 -0.0000
vn 0.3216 -0.9469 -0.0000
vn -0.4377 -0.8991 -0.0000
vn -0.1918 0.9814 -0.0000
vn -0.5285 0.8490 -0.0000
vn 0.2936 -0.9559 -0.0000
vn 0.4432 -0.8964 -0.0000
vn 0.9812 -0.1932 -0.0000
vn 0.9804 0.1968 -0.0000
vn 0.7515 0.6598 -0.0000
vn 0.6630 0.7486 -0.0000
vn 0.1959 0.9806 -0.0000
vn 0.9322 -0.3621 -0.0000
vn 0.9979 -0.0642 -0.0000
vn 0.9487 -0.3163 -0.0000
vn 0.3280 0.9447 -0.0000
vn 0.9978 0.0658 -0.0000
vn 0.5613 0.8276 -0.0000
vn 0.9877 0.1562 -0.0000
vn 0.1915 -0.9815 -0.0000
vn -0.6709 -0.7415 -0.0000
vn -0.9996 -0.0283 -0.0000
vn -0.3304 -0.9438 -0.0000
vn -0.9820 -0.1887 -0.0000
vn 0.2681 -0.9634 -0.0000
vn 0.3987 -0.9171 -0.0000
vn -0.4537 -0.8911 -0.0000
vn 0.5661 -0.8244 -0.0000
vn -0.9980 -0.0627 -0.0000
vn 0.9013 -0.4332 -0.0000
vn -0.9828 0.1845 -0.0000
vn -0.6655 0.7464 -0.0000
vn 0.9958 0.0919 -0.0000
vn -0.3195 0.9476 -0.0000
vn -0.5678 -0.8231 -0.0000
vn 0.9321 -0.3621 -0.0000
vn -0.8248 -0.5654 -0.0000
vn -0.5593 0.8290 -0.0000
vn 0.6598 0.7515 -0.0000
vn -0.9982 0.0608 -0.0000
vn 0.4441 0.8960 -0.0000
vn 0.3230 0.9464 -0.0000
vn -0.4430 0.8965 -0.0000
vn 0.9806 0.1958 -0.0000
vn 0.5569 0.8306 -0.0000
vn 0.9979 0.0653 -0.0000
vn 0.9817 -0.1903 -0.0000
vn 0.3638 0.9315 -0.0000
vn 0.5264 -0.8502 -0.0000
vn 0.3180 -0.9481 -0.0000
vn 0.6598 -0.7515 -0.0000
vn 0.2473 -0.9689 -0.0000
vn 0.5547 -0.8321 -0.0000
vn 0.4400 -0.8980 -0.0000
vn 0.8067 0.5910 -0.0000
vn 0.4408 -0.8976 -0.0000
vn 0.9958 0.0918 -0.0000
vn -0.5497 -0.8354 -0.0000
vn 0.7749 -0.6321 -0.0000
vn 0.8306 0.5569 -0.0000
vn 0.8220 -0.5696 -0.0000
vn 0.9960 -0.0891 -0.0000
vn 0.8682 0.4961 -0.0000
vn 0.9882 -0.1534 -0.0000
vn 0.9037 0.4283 -0.0000
vn 0.5039 0.8638 -0.0000
vn 0.9332 0.3595 -0.0000
vn 0.0413 0.9991 -0.0000
vn 0.5679 0.8231 -0.0000
vn 0.9996 0.0300 -0.0000
vn -0.0595 -0.9982 -0.0000
vn -0.6146 -0.7889 -0.0000
vn -0.5284 0.8490 -0.0000
vn -0.6529 -0.7575 -0.0000
vn 0.9980 -0.0630 -0.0000
vn -0.0632 0.9980 -0.0000
vn -0.4513 -0.8924 -0.0000
vn -0.5333 -0.8459 -0.0000
vn -0.1903 0.9817 -0.0000
vn -0.8940 0.4482 -0.0000
vn -0.9348 -0.3552 -0.0000
vn -0.9043 -0.4269 -0.0000
vn -0.9455 0.3256 -0.0000
vn -0.8252 -0.5648 -0.0000
vn 0.4492 0.8935 -0.0000
vn 0.0646 -0.9979 -0.0000
vn -0.7448 -0.6673 -0.0000
vn -0.0948 0.9955 -0.0000
vn 0.1945 -0.9809 -0.0000
vn 0.8976 -0.4407 -0.0000
vn -0.9587 -0.2846 -0.0000
vn 0.8314 0.5557 -0.0000
vn 0.9475 -0.3197 -0.0000
vn 0.0668 0.9978 -0.0000
vn -0.8269 0.5623 -0.0000
vn -0.0668 -0.9978 -0.0000
vn 0.8960 0.4441 -0.0000
vn -0.9033 0.4289 -0.0000
vn -0.9798 -0.2000 -0.0000
vn 0.3594 -0.9332 -0.0000
vn 0.9753 -0.2210 -0.0000
vn -0.5484 0.8362 -0.0000
vn -0.4376 -0.8991 -0.0000
vn 0.4433 -0.8964 -0.0000
vn 0.9811 -0.1933 -0.0000
vn 0.7514 0.6598 -0.0000
vn 0.1958 0.9806 -0.0000
vn 0.5661 -0.8243 -0.0000
vn 0.9322 -0.3620 -0.0000
vn 0.7805 0.6252 -0.0000
vn 0.6598 0.7514 -0.0000
vn 0.9817 -0.1904 -0.0000
vn 0.5546 -0.8321 -0.0000
vn -0.7146 -0.6996 -0.0000
vn -0.9887 -0.1501 -0.0000
vn -0.1802 -0.9836 -0.0000
vn -0.7715 -0.6363 -0.0000
vn 0.8220 -0.5695 -0.0000
vn -0.8875 0.4609 -0.0000
vt 0.000000 0.000000
vt 0.580645 0.000000
vt 0.602151 0.000000
vt 0.569892 0.000000
vt 0.559140 0.000000
vt 0.548387 0.000000
vt 0.537634 0.000000
vt 0.526882 0.000000
vt 0.516129 0.000000
vt 0.505376 0.000000
vt 0.494624 0.000000
vt 0.483871 0.000000
vt 0.473118 0.000000
vt 0.462366 0.000000
vt 0.451613 0.000000
vt 0.440860 0.000000
vt 0.430108 0.000000
vt 0.419355 0.000000
vt 0.408602 0.000000
vt 0.397849 0.000000
vt 0.387097 0.000000
vt 0.612903 0.000000
vt 0.376344 0.000000
vt 0.591398 0.000000
vt 0.623656 0.000000
vt 0.634409 0.000000
vt 0.645161 0.000000
vt 0.655914 0.000000
vt 0.666667 0.000000
vt 0.365591 0.000000
vt 0.677419 0.000000
vt 0.688172 0.000000
vt 0.698925 0.000000
vt 0.709677 0.000000
vt 0.720430 0.000000
vt 0.731183 0.000000
vt 0.354839 0.000000
vt 0.741935 0.000000
vt 0.752688 0.000000
vt 0.763441 0.000000
vt 0.344086 0.000000
vt 0.774194 0.000000
vt 0.784946 0.000000
vt 0.795699 0.000000
vt 0.333333 0.000000
vt 0.806452 0.000000
vt 0.817204 0.000000
vt 0.827957 0.000000
vt 0.322581 0.000000
vt 0.838710 0.000000
vt 0.849462 0.000000
vt 0.311828 0.000000
vt 0.860215 0.000000
vt 0.870968 0.000000
vt 0.301075 0.000000
vt 0.881720 0.000000
vt 0.290323 0.000000
vt 0.892473 0.000000
vt 0.279570 0.000000
vt 0.903226 0.000000
vt 0.268817 0.000000
vt 0.913979 0.000000
vt 0.924731 0.000000
vt 0.258065 0.000000
vt 0.935484 0.000000
vt 0.247312 0.000000
vt 0.946237 0.000000
vt 0.956989 0.000000
vt 0.236559 0.000000
vt 0.967742 0.000000
vt 0.978495 0.000000
vt 0.989247 0.000000
vt 0.225806 0.000000
vt 1.000000 0.000000
vt 0.021505 0.000000
vt 0.215054 0.000000
vt 0.204301 0.000000
vt 0.193548 0.000000
vt 0.182796 0.000000
vt 0.172043 0.000000
vt 0.161290 0.000000
vt 0.150538 0.000000
vt 0.139785 0.000000
vt 0.129032 0.000000
vt 0.118280 0.000000
vt 0.107527 0.000000
vt 0.096774 0.000000
vt 0.086022 0.000000
vt 0.075269 0.000000
vt 0.010753 0.000000
vt 0.032258 0.000000
vt 0.053763 0.000000
vt 0.064516 0.000000
vt 0.043011 0.000000
vt 0.010526 0.000000
vt 0.494737 0.000000
vt 0.021053 0.000000
vt 0.484211 0.000000
vt 0.031579 0.000000
vt 0.473684 0.000000
vt 0.042105 0.000000
vt 0.463158 0.000000
vt 0.052632 0.000000
vt 0.452632 0.000000
vt 0.063158 0.000000
vt 0.442105 0.000000
vt 0.073684 0.000000
vt 0.505263 0.000000
vt 0.431579 0.000000
vt 0.515789 0.000000
vt 0.989474 0.000000
vt 0.526316 0.000000
vt 0.978947 0.000000
vt 0.536842 0.000000
vt 0.084211 0.000000
vt 0.421053 0.000000
vt 0.968421 0.000000
vt 0.547368 0.000000
vt 0.957895 0.000000
vt 0.557895 0.000000
vt 0.947368 0.000000
vt 0.568421 0.000000
vt 0.094737 0.000000
vt 0.410526 0.000000
vt 0.936842 0.000000
vt 0.578947 0.000000
vt 0.926316 0.000000
vt 0.589474 0.000000
vt 0.105263 0.000000
vt 0.400000 0.000000
vt 0.915789 0.000000
vt 0.600000 0.000000
vt 0.115789 0.000000
vt 0.389474 0.000000
vt 0.905263 0.000000
vt 0.610526 0.000000
vt 0.894737 0.000000
vt 0.621053 0.000000
vt 0.126316 0.000000
vt 0.378947 0.000000
vt 0.884211 0.000000
vt 0.631579 0.000000
vt 0.136842 0.000000
vt 0.873684 0.000000
vt 0.368421 0.000000
vt 0.642105 0.000000
vt 0.863158 0.000000
vt 0.652632 0.000000
vt 0.147368 0.000000
vt 0.357895 0.000000
vt 0.852632 0.000000
vt 0.663158 0.000000
vt 0.842105 0.000000
vt 0.673684 0.000000
vt 0.157895 0.000000
vt 0.347368 0.000000
vt 0.831579 0.000000
vt 0.684211 0.000000
vt 0.168421 0.000000
vt 0.336842 0.000000
vt 0.821053 0.000000
vt 0.694737 0.000000
vt 0.810526 0.000000
vt 0.705263 0.000000
vt 0.178947 0.000000
vt 0.326316 0.000000
vt 0.800000 0.000000
vt 0.715789 0.000000
vt 0.789474 0.000000
vt 0.726316 0.000000
vt 0.778947 0.000000
vt 0.736842 0.000000
vt 0.189474 0.000000
vt 0.315789 0.000000
vt 0.768421 0.000000
vt 0.747368 0.000000
vt 0.757895 0.000000
vt 0.200000 0.000000
vt 0.305263 0.000000
vt 0.210526 0.000000
vt 0.294737 0.000000
vt 0.221053 0.000000
vt 0.284211 0.000000
vt 0.231579 0.000000
vt 0.273684 0.000000
vt 0.242105 0.000000
vt 0.263158 0.000000
vt 0.252632 0.000000
vt 0.727273 0.000000
vt 0.909091 0.000000
vt 0.818182 0.000000
vt 0.636364 0.000000
vt 0.363636 0.000000
vt 0.545455 0.000000
vt 0.454545 0.000000
vt 0.272727 0.000000
vt 0.181818 0.000000
vt 0.090909 0.000000
s 0
f 1/1/1 55/2/1 57/3/1
f 57/3/1 55/2/1 54/4/1
f 57/3/1 54/4/1 53/5/1
f 57/3/1 53/5/1 52/6/1
f 57/3/1 52/6/1 51/7/1
f 57/3/1 51/7/1 50/8/1
f 57/3/1 50/8/1 49/9/1
f 57/3/1 49/9/1 48/10/1
f 57/3/1 48/10/1 47/11/1
f 57/3/1 47/11/1 46/12/1
f 57/3/1 46/12/1 45/13/1
f 57/3/1 45/13/1 44/14/1
f 57/3/1 44/14/1 43/15/1
f 57/3/1 43/15/1 42/16/1
f 57/3/1 42/16/1 41/17/1
f 57/3/1 41/17/1 40/18/1
f 57/3/1 40/18/1 39/19/1
f 57/3/1 39/19/1 38/20/1
f 57/3/1 38/20/1 37/21/1
f 57/3/1 37/21/1 58/22/1
f 58/22/1 37/21/1 36/23/1
f 1/1/1 57/3/1 56/24/1
f 59/25/1 58/22/1 36/23/1
f 60/26/1 59/25/1 36/23/1
f 61/27/1 60/26/1 36/23/1
f 62/28/1 61/27/1 36/23/1
f 63/29/1 62/28/1 36/23/1
f 63/29/1 36/23/1 35/30/1
f 64/31/1 63/29/1 35/30/1
f 65/32/1 64/31/1 35/30/1
f 66/33/1 65/32/1 35/30/1
f 67/34/1 66/33/1 35/30/1
f 68/35/1 67/34/1 35/30/1
f 69/36/1 68/35/1 35/30/1
f 69/36/1 35/30/1 34/37/1
f 70/38/1 69/36/1 34/37/1
f 71/39/1 70/38/1 34/37/1
f 72/40/1 71/39/1 34/37/1
f 72/40/1 34/37/1 33/41/1
f 73/42/1 72/40/1 33/41/1
f 74/43/1 73/42/1 33/41/1
f 75/44/1 74/43/1 33/41/1
f 75/44/1 33/41/1 32/45/1
f 76/46/1 75/44/1 32/45/1
f 77/47/1 76/46/1 32/45/1
f 78/48/1 77/47/1 32/45/1
f 78/48/1 32/45/1 31/49/1
f 79/50/1 78/48/1 31/49/1
f 80/51/1 79/50/1 31/49/1
f 80/51/1 31/49/1 30/52/1
f 81/53/1 80/51/1 30/52/1
f 82/54/1 81/53/1 30/52/1
f 82/54/1 30/52/1 29/55/1
f 83/56/1 82/54/1 29/55/1
f 83/56/1 29/55/1 28/57/1
f 84/58/1 83/56/1 28/57/1
f 84/58/1 28/57/1 27/59/1
f 85/60/1 84/58/1 27/59/1
f 85/60/1 27/59/1 26/61/1
f 86/62/1 85/60/1 26/61/1
f 87/63/1 86/62/1 26/61/1
f 87/63/1 26/61/1 25/64/1
f 88/65/1 87/63/1 25/64/1
f 88/65/1 25/64/1 24/66/1
f 89/67/1 88/65/1 24/66/1
f 90/68/1 89/67/1 24/66/1
f 90/68/1 24/66/1 23/69/1
f 91/70/1 90/68/1 23/69/1
f 92/71/1 91/70/1 23/69/1
f 93/72/1 92/71/1 23/69/1
f 93/72/1 23/69/1 22/73/1
f 94/74/1 93/72/1 22/73/1
f 1/1/1 56/24/1 3/75/1
f 3/75/1 56/24/1 94/74/1
f 3/75/1 94/74/1 22/73/1
f 3/75/1 22/73/1 21/76/1
f 3/75/1 21/76/1 20/77/1
f 3/75/1 20/77/1 19/78/1
f 3/75/1 19/78/1 18/79/1
f 3/75/1 18/79/1 17/80/1
f 3/75/1 17/80/1 16/81/1
f 3/75/1 16/81/1 15/82/1
f 3/75/1 15/82/1 14/83/1
f 3/75/1 14/83/1 13/84/1
f 3/75/1 13/84/1 12/85/1
f 3/75/1 12/85/1 11/86/1
f 3/75/1 11/86/1 10/87/1
f 3/75/1 10/87/1 9/88/1
f 3/75/1 9/88/1 8/89/1
f 1/1/1 3/75/1 2/90/1
f 4/91/1 3/75/1 6/92/1
f 6/92/1 3/75/1 8/89/1
f 6/92/1 8/89/1 7/93/1
f 4/91/1 6/92/1 5/94/1
f 96/95/1 95/1/1 142/96/1
f 97/97/1 96/95/1 142/96/1
f 97/97/1 142/96/1 141/98/1
f 98/99/1 97/97/1 141/98/1
f 98/99/1 141/98/1 140/100/1
f 99/101/1 98/99/1 140/100/1
f 99/101/1 140/100/1 139/102/1
f 100/103/1 99/101/1 139/102/1
f 100/103/1 139/102/1 138/104/1
f 101/105/1 100/103/1 138/104/1
f 101/105/1 138/104/1 137/106/1
f 102/107/1 101/105/1 137/106/1
f 102/107/1 137/106/1 143/108/1
f 143/108/1 137/106/1 136/109/1
f 102/107/1 143/108/1 190/74/1
f 144/110/1 143/108/1 136/109/1
f 102/107/1 190/74/1 189/111/1
f 145/112/1 144/110/1 136/109/1
f 102/107/1 189/111/1 188/113/1
f 146/114/1 145/112/1 136/109/1
f 103/115/1 102/107/1 188/113/1
f 146/114/1 136/109/1 135/116/1
f 103/115/1 188/113/1 187/117/1
f 147/118/1 146/114/1 135/116/1
f 103/115/1 187/117/1 186/119/1
f 148/120/1 147/118/1 135/116/1
f 103/115/1 186/119/1 185/121/1
f 149/122/1 148/120/1 135/116/1
f 104/123/1 103/115/1 185/121/1
f 149/122/1 135/116/1 134/124/1
f 104/123/1 185/121/1 184/125/1
f 150/126/1 149/122/1 134/124/1
f 104/123/1 184/125/1 183/127/1
f 151/128/1 150/126/1 134/124/1
f 105/129/1 104/123/1 183/127/1
f 151/128/1 134/124/1 133/130/1
f 105/129/1 183/127/1 182/131/1
f 152/132/1 151/128/1 133/130/1
f 106/133/1 105/129/1 182/131/1
f 152/132/1 133/130/1 132/134/1
f 106/133/1 182/131/1 181/135/1
f 153/136/1 152/132/1 132/134/1
f 106/133/1 181/135/1 180/137/1
f 154/138/1 153/136/1 132/134/1
f 107/139/1 106/133/1 180/137/1
f 154/138/1 132/134/1 131/140/1
f 107/139/1 180/137/1 179/141/1
f 155/142/1 154/138/1 131/140/1
f 108/143/1 107/139/1 179/141/1
f 108/143/1 179/141/1 178/144/1
f 155/142/1 131/140/1 130/145/1
f 156/146/1 155/142/1 130/145/1
f 108/143/1 178/144/1 177/147/1
f 157/148/1 156/146/1 130/145/1
f 109/149/1 108/143/1 177/147/1
f 157/148/1 130/145/1 129/150/1
f 109/149/1 177/147/1 176/151/1
f 158/152/1 157/148/1 129/150/1
f 109/149/1 176/151/1 175/153/1
f 159/154/1 158/152/1 129/150/1
f 110/155/1 109/149/1 175/153/1
f 159/154/1 129/150/1 128/156/1
f 110/155/1 175/153/1 174/157/1
f 160/158/1 159/154/1 128/156/1
f 111/159/1 110/155/1 174/157/1
f 160/158/1 128/156/1 127/160/1
f 111/159/1 174/157/1 173/161/1
f 161/162/1 160/158/1 127/160/1
f 111/159/1 173/161/1 172/163/1
f 162/164/1 161/162/1 127/160/1
f 112/165/1 111/159/1 172/163/1
f 162/164/1 127/160/1 126/166/1
f 112/165/1 172/163/1 171/167/1
f 163/168/1 162/164/1 126/166/1
f 112/165/1 171/167/1 170/169/1
f 164/170/1 163/168/1 126/166/1
f 112/165/1 170/169/1 169/171/1
f 165/172/1 164/170/1 126/166/1
f 113/173/1 112/165/1 169/171/1
f 165/172/1 126/166/1 125/174/1
f 113/173/1 169/171/1 168/175/1
f 166/176/1 165/172/1 125/174/1
f 113/173/1 168/175/1 167/177/1
f 167/177/1 166/176/1 125/174/1
f 113/173/1 167/177/1 125/174/1
f 114/178/1 113/173/1 125/174/1
f 114/178/1 125/174/1 124/179/1
f 115/180/1 114/178/1 124/179/1
f 115/180/1 124/179/1 123/181/1
f 116/182/1 115/180/1 123/181/1
f 116/182/1 123/181/1 122/183/1
f 117/184/1 116/182/1 122/183/1
f 117/184/1 122/183/1 121/185/1
f 118/186/1 117/184/1 121/185/1
f 118/186/1 121/185/1 120/187/1
f 119/188/1 118/186/1 120/187/1
f 191/1/1 245/2/1 247/3/1
f 247/3/1 245/2/1 244/4/1
f 247/3/1 244/4/1 243/5/1
f 247/3/1 243/5/1 242/6/1
f 247/3/1 242/6/1 241/7/1
f 247/3/1 241/7/1 240/8/1
f 247/3/1 240/8/1 239/9/1
f 247/3/1 239/9/1 238/10/1
f 247/3/1 238/10/1 237/11/1
f 247/3/1 237/11/1 236/12/1
f 247/3/1 236/12/1 235/13/1
f 247/3/1 235/13/1 234/14/1
f 247/3/1 234/14/1 233/15/1
f 247/3/1 233/15/1 232/16/1
f 247/3/1 232/16/1 231/17/1
f 247/3/1 231/17/1 230/18/1
f 247/3/1 230/18/1 229/19/1
f 247/3/1 229/19/1 228/20/1
f 247/3/1 228/20/1 227/21/1
f 247/3/1 227/21/1 248/22/1
f 248/22/1 227/21/1 226/23/1
f 191/1/1 247/3/1 246/24/1
f 249/25/1 248/22/1 226/23/1
f 250/26/1 249/25/1 226/23/1
f 251/27/1 250/26/1 226/23/1
f 252/28/1 251/27/1 226/23/1
f 253/29/1 252/28/1 226/23/1
f 253/29/1 226/23/1 225/30/1
f 254/31/1 253/29/1 225/30/1
f 255/32/1 254/31/1 225/30/1
f 256/33/1 255/32/1 225/30/1
f 257/34/1 256/33/1 225/30/1
f 258/35/1 257/34/1 225/30/1
f 259/36/1 258/35/1 225/30/1
f 259/36/1 225/30/1 224/37/1
f 260/38/1 259/36/1 224/37/1
f 261/39/1 260/38/1 224/37/1
f 262/40/1 261/39/1 224/37/1
f 262/40/1 224/37/1 223/41/1
f 263/42/1 262/40/1 223/41/1
f 264/43/1 263/42/1 223/41/1
f 265/44/1 264/43/1 223/41/1
f 265/44/1 223/41/1 222/45/1
f 266/46/1 265/44/1 222/45/1
f 267/47/1 266/46/1 222/45/1
f 268/48/1 267/47/1 222/45/1
f 268/48/1 222/45/1 221/49/1
f 269/50/1 268/48/1 221/49/1
f 270/51/1 269/50/1 221/49/1
f 270/51/1 221/49/1 220/52/1
f 271/53/1 270/51/1 220/52/1
f 272/54/1 271/53/1 220/52/1
f 272/54/1 220/52/1 219/55/1
f 273/56/1 272/54/1 219/55/1
f 273/56/1 219/55/1 218/57/1
f 274/58/1 273/56/1 218/57/1
f 274/58/1 218/57/1 217/59/1
f 275/60/1 274/58/1 217/59/1
f 275/60/1 217/59/1 216/61/1
f 276/62/1 275/60/1 216/61/1
f 277/63/1 276/62/1 216/61/1
f 277/63/1 216/61/1 215/64/1
f 278/65/1 277/63/1 215/64/1
f 278/65/1 215/64/1 214/66/1
f 279/67/1 278/65/1 214/66/1
f 280/68/1 279/67/1 214/66/1
f 280/68/1 214/66/1 213/69/1
f 281/70/1 280/68/1 213/69/1
f 282/71/1 281/70/1 213/69/1
f 283/72/1 282/71/1 213/69/1
f 283/72/1 213/69/1 212/73/1
f 284/74/1 283/72/1 212/73/1
f 191/1/1 246/24/1 193/75/1
f 193/75/1 246/24/1 284/74/1
f 193/75/1 284/74/1 212/73/1
f 193/75/1 212/73/1 211/76/1
f 193/75/1 211/76/1 210/77/1
f 193/75/1 210/77/1 209/78/1
f 193/75/1 209/78/1 208/79/1
f 193/75/1 208/79/1 207/80/1
f 193/75/1 207/80/1 206/81/1
f 193/75/1 206/81/1 205/82/1
f 193/75/1 205/82/1 204/83/1
f 193/75/1 204/83/1 203/84/1
f 193/75/1 203/84/1 202/85/1
f 193/75/1 202/85/1 201/86/1
f 193/75/1 201/86/1 200/87/1
f 193/75/1 200/87/1 199/88/1
f 193/75/1 199/88/1 198/89/1
f 191/1/1 193/75/1 192/90/1
f 194/91/1 193/75/1 196/92/1
f 196/92/1 193/75/1 198/89/1
f 196/92/1 198/89/1 197/93/1
f 194/91/1 196/92/1 195/94/1
f 285/1/1 339/2/1 341/3/1
f 341/3/1 339/2/1 338/4/1
f 341/3/1 338/4/1 337/5/1
f 341/3/1 337/5/1 336/6/1
f 341/3/1 336/6/1 335/7/1
f 341/3/1 335/7/1 334/8/1
f 341/3/1 334/8/1 333/9/1
f 341/3/1 333/9/1 332/10/1
f 341/3/1 332/10/1 331/11/1
f 341/3/1 331/11/1 330/12/1
f 341/3/1 330/12/1 329/13/1
f 341/3/1 329/13/1 328/14/1
f 341/3/1 328/14/1 327/15/1
f 341/3/1 327/15/1 326/16/1
f 341/3/1 326/16/1 325/17/1
f 341/3/1 325/17/1 324/18/1
f 341/3/1 324/18/1 323/19/1
f 341/3/1 323/19/1 322/20/1
f 341/3/1 322/20/1 321/21/1
f 341/3/1 321/21/1 342/22/1
f 342/22/1 321/21/1 320/23/1
f 285/1/1 341/3/1 340/24/1
f 343/25/1 342/22/1 320/23/1
f 344/26/1 343/25/1 320/23/1
f 345/27/1 344/26/1 320/23/1
f 346/28/1 345/27/1 320/23/1
f 347/29/1 346/28/1 320/23/1
f 347/29/1 320/23/1 319/30/1
f 348/31/1 347/29/1 319/30/1
f 349/32/1 348/31/1 319/30/1
f 350/33/1 349/32/1 319/30/1
f 351/34/1 350/33/1 319/30/1
f 352/35/1 351/34/1 319/30/1
f 353/36/1 352/35/1 319/30/1
f 353/36/1 319/30/1 318/37/1
f 354/38/1 353/36/1 318/37/1
f 355/39/1 354/38/1 318/37/1
f 356/40/1 355/39/1 318/37/1
f 356/40/1 318/37/1 317/41/1
f 357/42/1 356/40/1 317/41/1
f 358/43/1 357/42/1 317/41/1
f 359/44/1 358/43/1 317/41/1
f 359/44/1 317/41/1 316/45/1
f 360/46/1 359/44/1 316/45/1
f 361/47/1 360/46/1 316/45/1
f 362/48/1 361/47/1 316/45/1
f 362/48/1 316/45/1 315/49/1
f 363/50/1 362/48/1 315/49/1
f 364/51/1 363/50/1 315/49/1
f 364/51/1 315/49/1 314/52/1
f 365/53/1 364/51/1 314/52/1
f 366/54/1 365/53/1 314/52/1
f 366/54/1 314/52/1 313/55/1
f 367/56/1 366/54/1 313/55/1
f 367/56/1 313/55/1 312/57/1
f 368/58/1 367/56/1 312/57/1
f 368/58/1 312/57/1 311/59/1
f 369/60/1 368/58/1 311/59/1
f 369/60/1 311/59/1 310/61/1
f 370/62/1 369/60/1 310/61/1
f 371/63/1 370/62/1 310/61/1
f 371/63/1 310/61/1 309/64/1
f 372/65/1 371/63/1 309/64/1
f 372/65/1 309/64/1 308/66/1
f 373/67/1 372/65/1 308/66/1
f 374/68/1 373/67/1 308/66/1
f 374/68/1 308/66/1 307/69/1
f 375/70/1 374/68/1 307/69/1
f 376/71/1 375/70/1 307/69/1
f 377/72/1 376/71/1 307/69/1
f 377/72/1 307/69/1 306/73/1
f 378/74/1 377/72/1 306/73/1
f 285/1/1 340/24/1 287/75/1
f 287/75/1 340/24/1 378/74/1
f 287/75/1 378/74/1 306/73/1
f 287/75/1 306/73/1 305/76/1
f 287/75/1 305/76/1 304/77/1
f 287/75/1 304/77/1 303/78/1
f 287/75/1 303/78/1 302/79/1
f 287/75/1 302/79/1 301/80/1
f 287/75/1 301/80/1 300/81/1
f 287/75/1 300/81/1 299/82/1
f 287/75/1 299/82/1 298/83/1
f 287/75/1 298/83/1 297/84/1
f 287/75/1 297/84/1 296/85/1
f 287/75/1 296/85/1 295/86/1
f 287/75/1 295/86/1 294/87/1
f 287/75/1 294/87/1 293/88/1
f 287/75/1 293/88/1 292/89/1
f 285/1/1 287/75/1 286/90/1
f 288/91/1 287/75/1 290/92/1
f 290/92/1 287/75/1 292/89/1
f 290/92/1 292/89/1 291/93/1
f 288/91/1 290/92/1 289/94/1
f 379/1/1 390/74/1 387/189/1
f 387/189/1 390/74/1 389/190/1
f 387/189/1 389/190/1 388/191/1
f 379/1/1 387/189/1 386/192/1
f 379/1/1 386/192/1 383/193/1
f 383/193/1 386/192/1 385/194/1
f 383/193/1 385/194/1 384/195/1
f 379/1/1 383/193/1 382/196/1
f 379/1/1 382/196/1 381/197/1
f 379/1/1 381/197/1 380/198/1
f 391/1/2 447/3/2 445/2/2
f 447/3/2 444/4/2 445/2/2
f 447/3/2 443/5/2 444/4/2
f 447/3/2 442/6/2 443/5/2
f 447/3/2 441/7/2 442/6/2
f 447/3/2 440/8/2 441/7/2
f 447/3/2 439/9/2 440/8/2
f 447/3/2 438/10/2 439/9/2
f 447/3/2 437/11/2 438/10/2
f 447/3/2 436/12/2 437/11/2
f 447/3/2 435/13/2 436/12/2
f 447/3/2 434/14/2 435/13/2
f 447/3/2 433/15/2 434/14/2
f 447/3/2 432/16/2 433/15/2
f 447/3/2 431/17/2 432/16/2
f 447/3/2 430/18/2 431/17/2
f 447/3/2 429/19/2 430/18/2
f 447/3/2 428/20/2 429/19/2
f 447/3/2 427/21/2 428/20/2
f 447/3/2 448/22/2 427/21/2
f 448/22/2 426/23/2 427/21/2
f 391/1/2 446/24/2 447/3/2
f 449/25/3 426/23/3 448/22/3
f 450/26/2 426/23/2 449/25/2
f 451/27/2 426/23/2 450/26/2
f 452/28/2 426/23/2 451/27/2
f 453/29/2 426/23/2 452/28/2
f 453/29/2 425/30/2 426/23/2
f 454/31/2 425/30/2 453/29/2
f 455/32/2 425/30/2 454/31/2
f 456/33/2 425/30/2 455/32/2
f 457/34/2 425/30/2 456/33/2
f 458/35/2 425/30/2 457/34/2
f 459/36/2 425/30/2 458/35/2
f 459/36/2 424/37/2 425/30/2
f 460/38/2 424/37/2 459/36/2
f 461/39/2 424/37/2 460/38/2
f 462/40/2 424/37/2 461/39/2
f 462/40/2 423/41/2 424/37/2
f 463/42/2 423/41/2 462/40/2
f 464/43/2 423/41/2 463/42/2
f 465/44/2 423/41/2 464/43/2
f 465/44/2 422/45/2 423/41/2
f 466/46/2 422/45/2 465/44/2
f 467/47/2 422/45/2 466/46/2
f 468/48/2 422/45/2 467/47/2
f 468/48/2 421/49/2 422/45/2
f 469/50/2 421/49/2 468/48/2
f 470/51/2 421/49/2 469/50/2
f 470/51/2 420/52/2 421/49/2
f 471/53/2 420/52/2 470/51/2
f 472/54/2 420/52/2 471/53/2
f 472/54/2 419/55/2 420/52/2
f 473/56/2 419/55/2 472/54/2
f 473/56/2 418/57/2 419/55/2
f 474/58/2 418/57/2 473/56/2
f 474/58/2 417/59/2 418/57/2
f 475/60/2 417/59/2 474/58/2
f 475/60/2 416/61/2 417/59/2
f 476/62/2 416/61/2 475/60/2
f 477/63/2 416/61/2 476/62/2
f 477/63/2 415/64/2 416/61/2
f 478/65/2 415/64/2 477/63/2
f 478/65/2 414/66/2 415/64/2
f 479/67/2 414/66/2 478/65/2
f 480/68/2 414/66/2 479/67/2
f 480/68/2 413/69/2 414/66/2
f 481/70/2 413/69/2 480/68/2
f 482/71/2 413/69/2 481/70/2
f 483/72/2 413/69/2 482/71/2
f 483/72/2 412/73/2 413/69/2
f 484/74/2 412/73/2 483/72/2
f 391/1/2 393/75/2 446/24/2
f 393/75/2 484/74/2 446/24/2
f 393/75/2 412/73/2 484/74/2
f 393/75/2 411/76/2 412/73/2
f 393/75/2 410/77/2 411/76/2
f 393/75/2 409/78/2 410/77/2
f 393/75/2 408/79/2 409/78/2
f 393/75/2 407/80/2 408/79/2
f 393/75/2 406/81/2 407/80/2
f 393/75/2 405/82/2 406/81/2
f 393/75/2 404/83/2 405/82/2
f 393/75/2 403/84/2 404/83/2
f 393/75/2 402/85/2 403/84/2
f 393/75/2 401/86/2 402/85/2
f 393/75/2 400/87/2 401/86/2
f 393/75/2 399/88/2 400/87/2
f 393/75/2 398/89/2 399/88/2
f 391/1/2 392/90/2 393/75/2
f 394/91/2 396/92/2 393/75/2
f 396/92/2 398/89/2 393/75/2
f 396/92/4 397/93/4 398/89/4
f 394/91/2 395/94/2 396/92/2
f 486/95/2 532/96/2 485/1/2
f 487/97/2 532/96/2 486/95/2
f 487/97/2 531/98/2 532/96/2
f 488/99/2 531/98/2 487/97/2
f 488/99/2 530/100/2 531/98/2
f 489/101/2 530/100/2 488/99/2
f 489/101/2 529/102/2 530/100/2
f 490/103/2 529/102/2 489/101/2
f 490/103/2 528/104/2 529/102/2
f 491/105/2 528/104/2 490/103/2
f 491/105/2 527/106/2 528/104/2
f 492/107/2 527/106/2 491/105/2
f 492/107/2 533/108/2 527/106/2
f 533/108/2 526/109/2 527/106/2
f 492/107/2 580/74/2 533/108/2
f 534/110/2 526/109/2 533/108/2
f 492/107/2 579/111/2 580/74/2
f 535/112/2 526/109/2 534/110/2
f 492/107/2 578/113/2 579/111/2
f 536/114/2 526/109/2 535/112/2
f 493/115/2 578/113/2 492/107/2
f 536/114/2 525/116/2 526/109/2
f 493/115/2 577/117/2 578/113/2
f 537/118/2 525/116/2 536/114/2
f 493/115/2 576/119/2 577/117/2
f 538/120/2 525/116/2 537/118/2
f 493/115/2 575/121/2 576/119/2
f 539/122/2 525/116/2 538/120/2
f 494/123/2 575/121/2 493/115/2
f 539/122/2 524/124/2 525/116/2
f 494/123/2 574/125/2 575/121/2
f 540/126/2 524/124/2 539/122/2
f 494/123/2 573/127/2 574/125/2
f 541/128/2 524/124/2 540/126/2
f 495/129/2 573/127/2 494/123/2
f 541/128/2 523/130/2 524/124/2
f 495/129/2 572/131/2 573/127/2
f 542/132/2 523/130/2 541/128/2
f 496/133/2 572/131/2 495/129/2
f 542/132/2 522/134/2 523/130/2
f 496/133/2 571/135/2 572/131/2
f 543/136/2 522/134/2 542/132/2
f 496/133/2 570/137/2 571/135/2
f 544/138/2 522/134/2 543/136/2
f 497/139/2 570/137/2 496/133/2
f 544/138/2 521/140/2 522/134/2
f 497/139/2 569/141/2 570/137/2
f 545/142/2 521/140/2 544/138/2
f 498/143/2 569/141/2 497/139/2
f 498/143/2 568/144/2 569/141/2
f 545/142/2 520/145/2 521/140/2
f 546/146/2 520/145/2 545/142/2
f 498/143/2 567/147/2 568/144/2
f 547/148/2 520/145/2 546/146/2
f 499/149/2 567/147/2 498/143/2
f 547/148/2 519/150/2 520/145/2
f 499/149/2 566/151/2 567/147/2
f 548/152/2 519/150/2 547/148/2
f 499/149/2 565/153/2 566/151/2
f 549/154/2 519/150/2 548/152/2
f 500/155/2 565/153/2 499/149/2
f 549/154/2 518/156/2 519/150/2
f 500/155/2 564/157/2 565/153/2
f 550/158/2 518/156/2 549/154/2
f 501/159/2 564/157/2 500/155/2
f 550/158/2 517/160/2 518/156/2
f 501/159/2 563/161/2 564/157/2
f 551/162/2 517/160/2 550/158/2
f 501/159/2 562/163/2 563/161/2
f 552/164/2 517/160/2 551/162/2
f 502/165/2 562/163/2 501/159/2
f 552/164/2 516/166/2 517/160/2
f 502/165/2 561/167/2 562/163/2
f 553/168/2 516/166/2 552/164/2
f 502/165/2 560/169/2 561/167/2
f 554/170/2 516/166/2 553/168/2
f 502/165/2 559/171/2 560/169/2
f 555/172/2 516/166/2 554/170/2
f 503/173/2 559/171/2 502/165/2
f 555/172/2 515/174/2 516/166/2
f 503/173/2 558/175/2 559/171/2
f 556/176/2 515/174/2 555/172/2
f 503/173/2 557/177/2 558/175/2
f 557/177/2 515/174/2 556/176/2
f 503/173/2 515/174/2 557/177/2
f 504/178/2 515/174/2 503/173/2
f 504/178/2 514/179/2 515/174/2
f 505/180/2 514/179/2 504/178/2
f 505/180/2 513/181/2 514/179/2
f 506/182/2 513/181/2 505/180/2
f 506/182/2 512/183/2 513/181/2
f 507/184/2 512/183/2 506/182/2
f 507/184/2 511/185/2 512/183/2
f 508/186/2 511/185/2 507/184/2
f 508/186/2 510/187/2 511/185/2
f 509/188/2 510/187/2 508/186/2
f 581/1/2 637/3/2 635/2/2
f 637/3/2 634/4/2 635/2/2
f 637/3/2 633/5/2 634/4/2
f 637/3/2 632/6/2 633/5/2
f 637/3/2 631/7/2 632/6/2
f 637/3/2 630/8/2 631/7/2
f 637/3/2 629/9/2 630/8/2
f 637/3/2 628/10/2 629/9/2
f 637/3/2 627/11/2 628/10/2
f 637/3/2 626/12/2 627/11/2
f 637/3/2 625/13/2 626/12/2
f 637/3/2 624/14/2 625/13/2
f 637/3/2 623/15/2 624/14/2
f 637/3/2 622/16/2 623/15/2
f 637/3/2 621/17/2 622/16/2
f 637/3/2 620/18/2 621/17/2
f 637/3/2 619/19/2 620/18/2
f 637/3/2 618/20/2 619/19/2
f 637/3/2 617/21/2 618/20/2
f 637/3/2 638/22/2 617/21/2
f 638/22/2 616/23/2 617/21/2
f 581/1/2 636/24/2 637/3/2
f 639/25/3 616/23/3 638/22/3
f 640/26/2 616/23/2 639/25/2
f 641/27/2 616/23/2 640/26/2
f 642/28/2 616/23/2 641/27/2
f 643/29/2 616/23/2 642/28/2
f 643/29/2 615/30/2 616/23/2
f 644/31/2 615/30/2 643/29/2
f 645/32/2 615/30/2 644/31/2
f 646/33/2 615/30/2 645/32/2
f 647/34/2 615/30/2 646/33/2
f 648/35/2 615/30/2 647/34/2
f 649/36/2 615/30/2 648/35/2
f 649/36/2 614/37/2 615/30/2
f 650/38/2 614/37/2 649/36/2
f 651/39/2 614/37/2 650/38/2
f 652/40/2 614/37/2 651/39/2
f 652/40/2 613/41/2 614/37/2
f 653/42/2 613/41/2 652/40/2
f 654/43/2 613/41/2 653/42/2
f 655/44/2 613/41/2 654/43/2
f 655/44/2 612/45/2 613/41/2
f 656/46/2 612/45/2 655/44/2
f 657/47/2 612/45/2 656/46/2
f 658/48/2 612/45/2 657/47/2
f 658/48/2 611/49/2 612/45/2
f 659/50/2 611/49/2 658/48/2
f 660/51/2 611/49/2 659/50/2
f 660/51/2 610/52/2 611/49/2
f 661/53/2 610/52/2 660/51/2
f 662/54/2 610/52/2 661/53/2
f 662/54/2 609/55/2 610/52/2
f 663/56/2 609/55/2 662/54/2
f 663/56/2 608/57/2 609/55/2
f 664/58/2 608/57/2 663/56/2
f 664/58/2 607/59/2 608/57/2
f 665/60/2 607/59/2 664/58/2
f 665/60/2 606/61/2 607/59/2
f 666/62/2 606/61/2 665/60/2
f 667/63/2 606/61/2 666/62/2
f 667/63/2 605/64/2 606/61/2
f 668/65/2 605/64/2 667/63/2
f 668/65/2 604/66/2 605/64/2
f 669/67/2 604/66/2 668/65/2
f 670/68/2 604/66/2 669/67/2
f 670/68/2 603/69/2 604/66/2
f 671/70/2 603/69/2 670/68/2
f 672/71/2 603/69/2 671/70/2
f 673/72/2 603/69/2 672/71/2
f 673/72/2 602/73/2 603/69/2
f 674/74/2 602/73/2 673/72/2
f 581/1/2 583/75/2 636/24/2
f 583/75/2 674/74/2 636/24/2
f 583/75/2 602/73/2 674/74/2
f 583/75/2 601/76/2 602/73/2
f 583/75/2 600/77/2 601/76/2
f 583/75/2 599/78/2 600/77/2
f 583/75/2 598/79/2 599/78/2
f 583/75/2 597/80/2 598/79/2
f 583/75/2 596/81/2 597/80/2
f 583/75/2 595/82/2 596/81/2
f 583/75/2 594/83/2 595/82/2
f 583/75/2 593/84/2 594/83/2
f 583/75/2 592/85/2 593/84/2
f 583/75/2 591/86/2 592/85/2
f 583/75/2 590/87/2 591/86/2
f 583/75/2 589/88/2 590/87/2
f 583/75/2 588/89/2 589/88/2
f 581/1/2 582/90/2 583/75/2
f 584/91/2 586/92/2 583/75/2
f 586/92/2 588/89/2 583/75/2
f 586/92/4 587/93/4 588/89/4
f 584/91/2 585/94/2 586/92/2
f 675/1/2 731/3/2 729/2/2
f 731/3/2 728/4/2 729/2/2
f 731/3/2 727/5/2 728/4/2
f 731/3/2 726/6/2 727/5/2
f 731/3/2 725/7/2 726/6/2
f 731/3/2 724/8/2 725/7/2
f 731/3/2 723/9/2 724/8/2
f 731/3/2 722/10/2 723/9/2
f 731/3/2 721/11/2 722/10/2
f 731/3/2 720/12/2 721/11/2
f 731/3/2 719/13/2 720/12/2
f 731/3/2 718/14/2 719/13/2
f 731/3/2 717/15/2 718/14/2
f 731/3/2 716/16/2 717/15/2
f 731/3/2 715/17/2 716/16/2
f 731/3/2 714/18/2 715/17/2
f 731/3/2 713/19/2 714/18/2
f 731/3/2 712/20/2 713/19/2
f 731/3/2 711/21/2 712/20/2
f 731/3/2 732/22/2 711/21/2
f 732/22/2 710/23/2 711/21/2
f 675/1/2 730/24/2 731/3/2
f 733/25/3 710/23/3 732/22/3
f 734/26/2 710/23/2 733/25/2
f 735/27/2 710/23/2 734/26/2
f 736/28/2 710/23/2 735/27/2
f 737/29/2 710/23/2 736/28/2
f 737/29/2 709/30/2 710/23/2
f 738/31/2 709/30/2 737/29/2
f 739/32/2 709/30/2 738/31/2
f 740/33/2 709/30/2 739/32/2
f 741/34/2 709/30/2 740/33/2
f 742/35/2 709/30/2 741/34/2
f 743/36/2 709/30/2 742/35/2
f 743/36/2 708/37/2 709/30/2
f 744/38/2 708/37/2 743/36/2
f 745/39/2 708/37/2 744/38/2
f 746/40/2 708/37/2 745/39/2
f 746/40/2 707/41/2 708/37/2
f 747/42/2 707/41/2 746/40/2
f 748/43/2 707/41/2 747/42/2
f 749/44/2 707/41/2 748/43/2
f 749/44/2 706/45/2 707/41/2
f 750/46/2 706/45/2 749/44/2
f 751/47/2 706/45/2 750/46/2
f 752/48/2 706/45/2 751/47/2
f 752/48/2 705/49/2 706/45/2
f 753/50/2 705/49/2 752/48/2
f 754/51/2 705/49/2 753/50/2
f 754/51/2 704/52/2 705/49/2
f 755/53/2 704/52/2 754/51/2
f 756/54/2 704/52/2 755/53/2
f 756/54/2 703/55/2 704/52/2
f 757/56/2 703/55/2 756/54/2
f 757/56/2 702/57/2 703/55/2
f 758/58/2 702/57/2 757/56/2
f 758/58/2 701/59/2 702/57/2
f 759/60/2 701/59/2 758/58/2
f 759/60/2 700/61/2 701/59/2
f 760/62/2 700/61/2 759/60/2
f 761/63/2 700/61/2 760/62/2
f 761/63/2 699/64/2 700/61/2
f 762/65/2 699/64/2 761/63/2
f 762/65/2 698/66/2 699/64/2
f 763/67/2 698/66/2 762/65/2
f 764/68/2 698/66/2 763/67/2
f 764/68/2 697/69/2 698/66/2
f 765/70/2 697/69/2 764/68/2
f 766/71/2 697/69/2 765/70/2
f 767/72/2 697/69/2 766/71/2
f 767/72/2 696/73/2 697/69/2
f 768/74/2 696/73/2 767/72/2
f 675/1/2 677/75/2 730/24/2
f 677/75/2 768/74/2 730/24/2
f 677/75/2 696/73/2 768/74/2
f 677/75/2 695/76/2 696/73/2
f 677/75/2 694/77/2 695/76/2
f 677/75/2 693/78/2 694/77/2
f 677/75/2 692/79/2 693/78/2
f 677/75/2 691/80/2 692/79/2
f 677/75/2 690/81/2 691/80/2
f 677/75/2 689/82/2 690/81/2
f 677/75/2 688/83/2 689/82/2
f 677/75/2 687/84/2 688/83/2
f 677/75/2 686/85/2 687/84/2
f 677/75/2 685/86/2 686/85/2
f 677/75/2 684/87/2 685/86/2
f 677/75/2 683/88/2 684/87/2
f 677/75/2 682/89/2 683/88/2
f 675/1/2 676/90/2 677/75/2
f 678/91/2 680/92/2 677/75/2
f 680/92/2 682/89/2 677/75/2
f 680/92/4 681/93/4 682/89/4
f 678/91/2 679/94/2 680/92/2
f 769/1/2 777/189/2 780/74/2
f 777/189/2 779/190/2 780/74/2
f 777/189/2 778/191/2 779/190/2
f 769/1/2 776/192/2 777/189/2
f 769/1/2 773/193/2 776/192/2
f 773/193/2 775/194/2 776/192/2
f 773/193/2 774/195/2 775/194/2
f 769/1/2 772/196/2 773/193/2
f 769/1/2 771/197/2 772/196/2
f 769/1/2 770/198/2 771/197/2
f 325/17/5 714/18/5 324/18/5
f 137/106/6 526/109/6 136/109/6
f 301/80/7 690/81/7 300/81/7
f 35/30/8 424/37/8 34/37/8
f 366/54/9 755/53/9 365/53/9
f 50/8/10 439/9/10 49/9/10
f 52/6/11 441/7/11 51/7/11
f 298/83/12 687/84/12 297/84/12
f 111/159/13 500/155/13 110/155/13
f 307/69/14 696/73/14 306/73/14
f 86/62/15 475/60/15 85/60/15
f 324/18/16 713/19/16 323/19/16
f 202/85/17 591/86/17 201/86/17
f 43/15/18 432/16/18 42/16/18
f 1/1/19 445/2/19 55/2/19
f 185/121/20 574/125/20 184/125/20
f 69/36/21 458/35/21 68/35/21
f 94/74/22 483/72/22 93/72/22
f 304/77/23 693/78/23 303/78/23
f 145/112/24 534/110/24 144/110/24
f 152/132/25 541/128/25 151/128/25
f 306/73/26 695/76/26 305/76/26
f 374/68/27 763/67/27 373/67/27
f 351/34/28 740/33/28 350/33/28
f 60/26/29 449/25/29 59/25/29
f 160/158/30 549/154/30 159/154/30
f 51/7/31 440/8/31 50/8/31
f 119/188/32 508/186/32 118/186/32
f 58/22/33 447/3/33 57/3/33
f 332/10/34 721/11/34 331/11/34
f 153/136/35 542/132/35 152/132/35
f 317/41/36 706/45/36 316/45/36
f 315/49/37 704/52/37 314/52/37
f 77/47/38 466/46/38 76/46/38
f 314/52/39 703/55/39 313/55/39
f 124/179/40 513/181/40 123/181/40
f 168/175/41 557/177/41 167/177/41
f 59/25/42 448/22/42 58/22/42
f 382/196/43 771/197/43 381/197/43
f 66/33/44 455/32/44 65/32/44
f 161/162/45 550/158/45 160/158/45
f 296/85/17 685/86/17 295/86/17
f 127/160/46 516/166/46 126/166/46
f 323/19/47 712/20/47 322/20/47
f 102/107/48 491/105/48 101/105/48
f 85/60/49 474/58/49 84/58/49
f 322/20/50 711/21/50 321/21/50
f 390/74/43 779/190/43 389/190/43
f 359/44/51 748/43/51 358/43/51
f 348/31/52 737/29/52 347/29/52
f 67/34/28 456/33/28 66/33/28
f 135/116/53 524/124/53 134/124/53
f 93/72/54 482/71/54 92/71/54
f 68/35/55 457/34/55 67/34/55
f 176/151/56 565/153/56 175/153/56
f 74/43/57 463/42/57 73/42/57
f 110/155/58 499/149/58 109/149/58
f 184/125/59 573/127/59 183/127/59
f 367/56/60 756/54/60 366/54/60
f 356/40/61 745/39/61 355/39/61
f 177/147/62 566/151/62 176/151/62
f 82/54/9 471/53/9 81/53/9
f 101/105/63 490/103/63 100/103/63
f 76/46/64 465/44/64 75/44/64
f 339/2/43 728/4/43 338/4/43
f 333/9/65 722/10/65 332/10/65
f 330/12/66 719/13/66 329/13/66
f 84/58/67 473/56/67 83/56/67
f 75/44/51 464/43/51 74/43/51
f 151/128/68 540/126/68 150/126/68
f 118/186/69 507/184/69 117/184/69
f 364/51/70 753/50/70 363/50/70
f 193/75/71 582/90/71 192/90/71
f 143/108/72 580/74/72 190/74/72
f 338/4/73 727/5/73 337/5/73
f 159/154/74 548/152/74 158/152/74
f 375/70/75 764/68/75 374/68/75
f 109/149/76 498/143/76 108/143/76
f 192/90/33 581/1/33 191/1/33
f 83/56/60 472/54/60 82/54/60
f 90/68/27 479/67/27 89/67/27
f 372/65/77 761/63/77 371/63/77
f 201/86/78 590/87/78 200/87/78
f 92/71/79 481/70/79 91/70/79
f 347/29/80 736/28/80 346/28/80
f 117/184/81 506/182/81 116/182/81
f 349/32/82 738/31/82 348/31/82
f 200/87/83 589/88/83 199/88/83
f 98/99/84 487/97/84 97/97/84
f 126/166/85 515/174/85 125/174/85
f 209/78/86 598/79/86 208/79/86
f 355/39/87 744/38/87 354/38/87
f 383/193/71 772/196/71 382/196/71
f 217/59/88 606/61/88 216/61/88
f 100/103/89 489/101/89 99/101/89
f 208/79/90 597/80/90 207/80/90
f 346/28/91 735/27/91 345/27/91
f 167/177/92 556/176/92 166/176/92
f 106/133/93 495/129/93 105/129/93
f 134/124/94 523/130/94 133/130/94
f 357/42/95 746/40/95 356/40/95
f 91/70/75 480/68/75 90/68/75
f 363/50/96 752/48/96 362/48/96
f 225/30/8 614/37/8 224/37/8
f 216/61/97 605/64/97 215/64/97
f 354/38/98 743/36/98 353/36/98
f 233/15/18 622/16/18 232/16/18
f 99/101/99 488/99/99 98/99/99
f 142/96/100 531/98/100 141/98/100
f 224/37/101 613/41/101 223/41/101
f 362/48/102 751/47/102 361/47/102
f 150/126/103 539/122/103 149/122/103
f 380/198/33 769/1/33 379/1/33
f 241/7/31 630/8/31 240/8/31
f 232/16/104 621/17/104 231/17/104
f 107/139/105 496/133/105 106/133/105
f 183/127/106 572/131/106 182/131/106
f 114/178/107 503/173/107 113/173/107
f 125/174/108 514/179/108 124/179/108
f 108/143/109 497/139/109 107/139/109
f 371/63/110 760/62/110 370/62/110
f 249/25/42 638/22/42 248/22/42
f 365/53/111 754/51/111 364/51/111
f 240/8/10 629/9/10 239/9/10
f 158/152/112 547/148/112 157/148/112
f 191/1/19 635/2/19 245/2/19
f 370/62/15 759/60/15 369/60/15
f 122/183/113 511/185/113 121/185/113
f 116/182/114 505/180/114 115/180/114
f 166/176/115 555/172/115 165/172/115
f 373/67/116 762/65/116 372/65/116
f 378/74/22 767/72/22 377/72/22
f 199/88/117 588/89/117 198/89/117
f 388/191/33 777/189/33 387/189/33
f 248/22/33 637/3/33 247/3/33
f 123/181/118 512/183/118 122/183/118
f 207/80/7 596/81/7 206/81/7
f 130/145/119 519/150/119 129/150/119
f 271/53/111 660/51/111 270/51/111
f 133/130/120 522/134/120 132/134/120
f 340/24/43 768/74/43 378/74/43
f 256/33/44 645/32/44 255/32/44
f 57/3/71 446/24/71 56/24/71
f 387/189/71 776/192/71 386/192/71
f 174/157/121 563/161/121 173/161/121
f 285/1/19 729/2/19 339/2/19
f 138/104/122 527/106/122 137/106/122
f 169/171/123 558/175/123 168/175/123
f 215/64/124 604/66/124 214/66/124
f 381/197/71 770/198/71 380/198/71
f 264/43/57 653/42/57 263/42/57
f 386/192/43 775/194/43 385/194/43
f 9/88/117 398/89/117 8/89/117
f 131/140/125 520/145/125 130/145/125
f 182/131/126 571/135/126 181/135/126
f 141/98/127 530/100/127 140/100/127
f 132/134/128 521/140/128 131/140/128
f 139/102/129 528/104/129 138/104/129
f 223/41/130 612/45/130 222/45/130
f 190/74/131 579/111/131 189/111/131
f 149/122/132 538/120/132 148/120/132
f 389/190/71 778/191/71 388/191/71
f 272/54/133 661/53/133 271/53/133
f 231/17/5 620/18/5 230/18/5
f 146/114/134 535/112/134 145/112/134
f 247/3/71 636/24/71 246/24/71
f 17/80/7 406/81/7 16/81/7
f 239/9/65 628/10/65 238/10/65
f 154/138/135 543/136/135 153/136/135
f 198/89/136 587/93/136 197/93/136
f 12/85/137 401/86/137 11/86/137
f 147/118/138 536/114/138 146/114/138
f 206/81/139 595/82/139 205/82/139
f 155/142/140 544/138/140 154/138/140
f 287/75/71 676/90/71 286/90/71
f 255/32/82 644/31/82 254/31/82
f 214/66/141 603/69/141 213/69/141
f 157/148/142 546/146/142 156/146/142
f 269/50/96 658/48/96 268/48/96
f 280/68/27 669/67/27 279/67/27
f 257/34/28 646/33/28 256/33/28
f 162/164/143 551/162/143 161/162/143
f 222/45/144 611/49/144 221/49/144
f 165/172/145 554/170/145 164/170/145
f 148/120/146 537/118/146 147/118/146
f 25/64/147 414/66/147 24/66/147
f 288/91/148 677/75/148 287/75/148
f 163/168/149 552/164/149 162/164/149
f 230/18/16 619/19/16 229/19/16
f 173/161/150 562/163/150 172/163/150
f 33/41/36 422/45/36 32/45/36
f 379/1/19 780/74/19 390/74/19
f 156/146/151 545/142/151 155/142/151
f 171/167/152 560/169/152 170/169/152
f 170/169/153 559/171/153 169/171/153
f 210/77/23 599/78/23 209/78/23
f 8/89/136 397/93/136 7/93/136
f 238/10/34 627/11/34 237/11/34
f 164/170/154 553/168/154 163/168/154
f 265/44/51 654/43/51 264/43/51
f 178/144/155 567/147/155 177/147/155
f 172/163/156 561/167/156 171/167/156
f 179/141/157 568/144/157 178/144/157
f 16/81/139 405/82/139 15/82/139
f 181/135/158 570/137/158 180/137/158
f 273/56/60 662/54/60 272/54/60
f 254/31/52 643/29/52 253/29/52
f 331/11/159 720/12/159 330/12/159
f 299/82/160 688/83/160 298/83/160
f 189/111/161 578/113/161 188/113/161
f 41/17/5 430/18/5 40/18/5
f 186/119/162 575/121/162 185/121/162
f 350/33/44 739/32/44 349/32/44
f 197/93/163 586/92/163 196/92/163
f 187/117/164 576/119/164 186/119/164
f 194/91/148 583/75/148 193/75/148
f 262/40/61 651/39/61 261/39/61
f 188/113/165 577/117/165 187/117/165
f 195/94/33 584/91/33 194/91/33
f 24/66/141 413/69/141 23/69/141
f 7/93/163 396/92/163 6/92/163
f 205/82/160 594/83/160 204/83/160
f 281/70/75 670/68/75 280/68/75
f 213/69/14 602/73/14 212/73/14
f 196/92/166 585/94/166 195/94/166
f 203/84/167 592/85/167 202/85/167
f 32/45/168 421/49/168 31/49/168
f 221/49/37 610/52/37 220/52/37
f 115/180/169 504/178/169 114/178/169
f 211/76/170 600/77/170 210/77/170
f 289/94/33 678/91/33 288/91/33
f 204/83/12 593/84/12 203/84/12
f 175/153/171 564/157/171 174/157/171
f 270/51/70 659/50/70 269/50/70
f 229/19/47 618/20/47 228/20/47
f 15/82/160 404/83/160 14/83/160
f 212/73/172 601/76/172 211/76/172
f 49/9/65 438/10/65 48/10/65
f 219/55/173 608/57/173 218/57/173
f 40/18/16 429/19/16 39/19/16
f 279/67/116 668/65/116 278/65/116
f 237/11/159 626/12/159 236/12/159
f 220/52/39 609/55/39 219/55/39
f 297/84/167 686/85/167 296/85/167
f 228/20/174 617/21/174 227/21/174
f 312/57/175 701/59/175 311/59/175
f 227/21/176 616/23/176 226/23/176
f 48/10/34 437/11/34 47/11/34
f 278/65/77 667/63/77 277/63/77
f 236/12/66 625/13/66 235/13/66
f 235/13/177 624/14/177 234/14/177
f 305/76/170 694/77/170 304/77/170
f 23/69/14 412/73/14 22/73/14
f 245/2/43 634/4/43 244/4/43
f 309/64/124 698/66/124 308/66/124
f 343/25/42 732/22/42 342/22/42
f 341/3/71 730/24/71 340/24/71
f 20/77/23 409/78/23 19/78/23
f 320/23/178 709/30/178 319/30/178
f 243/5/179 632/6/179 242/6/179
f 253/29/80 642/28/80 252/28/80
f 244/4/73 633/5/73 243/5/73
f 65/32/82 454/31/82 64/31/82
f 6/92/166 395/94/166 5/94/166
f 277/63/110 666/62/110 276/62/110
f 328/14/180 717/15/180 327/15/180
f 64/31/52 453/29/52 63/29/52
f 263/42/95 652/40/95 262/40/95
f 73/42/95 462/40/95 72/40/95
f 321/21/176 710/23/176 320/23/176
f 286/90/33 675/1/33 285/1/33
f 72/40/61 461/39/61 71/39/61
f 31/49/181 420/52/181 30/52/181
f 252/28/91 641/27/91 251/27/91
f 251/27/182 640/26/182 250/26/182
f 329/13/177 718/14/177 328/14/177
f 218/57/175 607/59/175 217/59/175
f 294/87/83 683/88/83 293/88/83
f 39/19/47 428/20/47 38/20/47
f 260/38/183 649/36/183 259/36/183
f 226/23/178 615/30/178 225/30/178
f 302/79/90 691/80/90 301/80/90
f 14/83/12 403/84/12 13/84/12
f 5/94/33 394/91/33 4/91/33
f 336/6/11 725/7/11 335/7/11
f 316/45/144 705/49/144 315/49/144
f 80/51/70 469/50/70 79/50/70
f 234/14/180 623/15/180 233/15/180
f 47/11/159 436/12/159 46/12/159
f 81/53/111 470/51/111 80/51/111
f 4/91/148 393/75/148 3/75/148
f 337/5/179 726/6/179 336/6/179
f 310/61/97 699/64/97 309/64/97
f 261/39/87 650/38/87 260/38/87
f 242/6/11 631/7/11 241/7/11
f 55/2/43 444/4/43 54/4/43
f 268/48/102 657/47/102 267/47/102
f 22/73/26 411/76/26 21/76/26
f 13/84/167 402/85/167 12/85/167
f 318/37/101 707/41/101 317/41/101
f 89/67/184 478/65/184 88/65/184
f 88/65/77 477/63/77 87/63/77
f 63/29/80 452/28/80 62/28/80
f 345/27/182 734/26/182 344/26/182
f 250/26/29 639/25/29 249/25/29
f 313/55/173 702/57/173 312/57/173
f 246/24/43 674/74/43 284/74/43
f 276/62/15 665/60/15 275/60/15
f 326/16/104 715/17/104 325/17/104
f 30/52/39 419/55/39 29/55/39
f 21/76/170 410/77/170 20/77/170
f 71/39/185 460/38/185 70/38/185
f 180/137/186 569/141/186 179/141/186
f 284/74/22 673/72/22 283/72/22
f 56/24/43 484/74/43 94/74/43
f 334/8/10 723/9/10 333/9/10
f 2/90/33 391/1/33 1/1/33
f 38/20/174 427/21/174 37/21/174
f 29/55/173 418/57/173 28/57/173
f 96/95/187 485/1/187 95/1/187
f 79/50/96 468/48/96 78/48/96
f 295/86/78 684/87/78 294/87/78
f 352/35/188 741/34/188 351/34/188
f 353/36/189 742/35/189 352/35/189
f 258/35/188 647/34/188 257/34/188
f 46/12/66 435/13/66 45/13/66
f 292/89/136 681/93/136 291/93/136
f 97/97/190 486/95/190 96/95/190
f 104/123/191 493/115/191 103/115/191
f 3/75/71 392/90/71 2/90/71
f 10/87/83 399/88/83 9/88/83
f 303/78/86 692/79/86 302/79/86
f 37/21/176 426/23/176 36/23/176
f 361/47/192 750/46/192 360/46/192
f 266/46/64 655/44/64 265/44/64
f 267/47/38 656/46/38 266/46/38
f 54/4/73 443/5/73 53/5/73
f 300/81/139 689/82/139 299/82/139
f 360/46/193 749/44/193 359/44/193
f 11/86/78 400/87/78 10/87/78
f 259/36/189 648/35/189 258/35/189
f 311/59/88 700/61/88 310/61/88
f 45/13/177 434/14/177 44/14/177
f 105/129/194 494/123/194 104/123/194
f 112/165/195 501/159/195 111/159/195
f 140/100/196 529/102/196 139/102/196
f 369/60/49 758/58/49 368/58/49
f 274/58/67 663/56/67 273/56/67
f 18/79/90 407/80/90 17/80/90
f 308/66/141 697/69/141 307/69/141
f 344/26/29 733/25/29 343/25/29
f 19/78/86 408/79/86 18/79/86
f 342/22/33 731/3/33 341/3/33
f 275/60/49 664/58/49 274/58/49
f 62/28/91 451/27/91 61/27/91
f 53/5/179 442/6/179 52/6/179
f 368/58/67 757/56/67 367/56/67
f 120/187/197 509/188/197 119/188/197
f 87/63/110 476/62/110 86/62/110
f 26/61/97 415/64/97 25/64/97
f 319/30/8 708/37/8 318/37/8
f 113/173/198 502/165/198 112/165/198
f 377/72/54 766/71/54 376/71/54
f 283/72/199 672/71/199 282/71/199
f 376/71/79 765/70/79 375/70/79
f 28/57/175 417/59/175 27/59/175
f 282/71/79 671/70/79 281/70/79
f 70/38/98 459/36/98 69/36/98
f 121/185/200 510/187/200 120/187/200
f 128/156/201 517/160/201 127/160/201
f 27/59/88 416/61/88 26/61/88
f 34/37/101 423/41/101 33/41/101
f 327/15/18 716/16/18 326/16/18
f 385/194/71 774/195/71 384/195/71
f 291/93/163 680/92/163 290/92/163
f 78/48/202 467/47/202 77/47/202
f 61/27/182 450/26/182 60/26/182
f 384/195/33 773/193/33 383/193/33
f 36/23/178 425/30/178 35/30/178
f 136/109/203 525/116/203 135/116/203
f 358/43/57 747/42/57 357/42/57
f 335/7/31 724/8/31 334/8/31
f 129/150/204 518/156/204 128/156/204
f 293/88/117 682/89/117 292/89/117
f 95/1/205 532/96/205 142/96/205
f 103/115/206 492/107/206 102/107/206
f 42/16/104 431/17/104 41/17/104
f 44/14/180 433/15/180 43/15/180
f 144/110/207 533/108/207 143/108/207
f 290/92/166 679/94/166 289/94/166
f 325/17/5 715/17/5 714/18/5
f 137/106/6 527/106/6 526/109/6
f 301/80/7 691/80/7 690/81/7
f 35/30/8 425/30/8 424/37/8
f 366/54/9 756/54/9 755/53/9
f 50/8/10 440/8/10 439/9/10
f 52/6/11 442/6/11 441/7/11
f 298/83/12 688/83/12 687/84/12
f 111/159/13 501/159/13 500/155/13
f 307/69/14 697/69/14 696/73/14
f 86/62/15 476/62/15 475/60/15
f 324/18/16 714/18/16 713/19/16
f 202/85/17 592/85/17 591/86/17
f 43/15/18 433/15/18 432/16/18
f 1/1/19 391/1/19 445/2/19
f 185/121/20 575/121/20 574/125/20
f 69/36/189 459/36/189 458/35/189
f 94/74/22 484/74/22 483/72/22
f 304/77/23 694/77/23 693/78/23
f 145/112/24 535/112/24 534/110/24
f 152/132/25 542/132/25 541/128/25
f 306/73/26 696/73/26 695/76/26
f 374/68/27 764/68/27 763/67/27
f 351/34/28 741/34/28 740/33/28
f 60/26/29 450/26/29 449/25/29
f 160/158/30 550/158/30 549/154/30
f 51/7/31 441/7/31 440/8/31
f 119/188/32 509/188/32 508/186/32
f 58/22/33 448/22/33 447/3/33
f 332/10/34 722/10/34 721/11/34
f 153/136/35 543/136/35 542/132/35
f 317/41/36 707/41/36 706/45/36
f 315/49/37 705/49/37 704/52/37
f 77/47/192 467/47/192 466/46/192
f 314/52/39 704/52/39 703/55/39
f 124/179/40 514/179/40 513/181/40
f 168/175/41 558/175/41 557/177/41
f 59/25/42 449/25/42 448/22/42
f 382/196/43 772/196/43 771/197/43
f 66/33/44 456/33/44 455/32/44
f 161/162/45 551/162/45 550/158/45
f 296/85/17 686/85/17 685/86/17
f 127/160/46 517/160/46 516/166/46
f 323/19/47 713/19/47 712/20/47
f 102/107/48 492/107/48 491/105/48
f 85/60/49 475/60/49 474/58/49
f 322/20/50 712/20/50 711/21/50
f 390/74/43 780/74/43 779/190/43
f 359/44/51 749/44/51 748/43/51
f 348/31/52 738/31/52 737/29/52
f 67/34/28 457/34/28 456/33/28
f 135/116/53 525/116/53 524/124/53
f 93/72/199 483/72/199 482/71/199
f 68/35/188 458/35/188 457/34/188
f 176/151/208 566/151/208 565/153/208
f 74/43/57 464/43/57 463/42/57
f 110/155/58 500/155/58 499/149/58
f 184/125/59 574/125/59 573/127/59
f 367/56/60 757/56/60 756/54/60
f 356/40/61 746/40/61 745/39/61
f 177/147/62 567/147/62 566/151/62
f 82/54/9 472/54/9 471/53/9
f 101/105/63 491/105/63 490/103/63
f 76/46/193 466/46/193 465/44/193
f 339/2/43 729/2/43 728/4/43
f 333/9/65 723/9/65 722/10/65
f 330/12/66 720/12/66 719/13/66
f 84/58/67 474/58/67 473/56/67
f 75/44/51 465/44/51 464/43/51
f 151/128/68 541/128/68 540/126/68
f 118/186/69 508/186/69 507/184/69
f 364/51/70 754/51/70 753/50/70
f 193/75/71 583/75/71 582/90/71
f 143/108/72 533/108/72 580/74/72
f 338/4/73 728/4/73 727/5/73
f 159/154/209 549/154/209 548/152/209
f 375/70/75 765/70/75 764/68/75
f 109/149/210 499/149/210 498/143/210
f 192/90/33 582/90/33 581/1/33
f 83/56/60 473/56/60 472/54/60
f 90/68/27 480/68/27 479/67/27
f 372/65/77 762/65/77 761/63/77
f 201/86/211 591/86/211 590/87/211
f 92/71/79 482/71/79 481/70/79
f 347/29/80 737/29/80 736/28/80
f 117/184/81 507/184/81 506/182/81
f 349/32/82 739/32/82 738/31/82
f 200/87/83 590/87/83 589/88/83
f 98/99/84 488/99/84 487/97/84
f 126/166/85 516/166/85 515/174/85
f 209/78/86 599/78/86 598/79/86
f 355/39/87 745/39/87 744/38/87
f 383/193/71 773/193/71 772/196/71
f 217/59/212 607/59/212 606/61/212
f 100/103/213 490/103/213 489/101/213
f 208/79/90 598/79/90 597/80/90
f 346/28/91 736/28/91 735/27/91
f 167/177/92 557/177/92 556/176/92
f 106/133/93 496/133/93 495/129/93
f 134/124/94 524/124/94 523/130/94
f 357/42/95 747/42/95 746/40/95
f 91/70/75 481/70/75 480/68/75
f 363/50/96 753/50/96 752/48/96
f 225/30/8 615/30/8 614/37/8
f 216/61/97 606/61/97 605/64/97
f 354/38/183 744/38/183 743/36/183
f 233/15/18 623/15/18 622/16/18
f 99/101/99 489/101/99 488/99/99
f 142/96/100 532/96/100 531/98/100
f 224/37/101 614/37/101 613/41/101
f 362/48/102 752/48/102 751/47/102
f 150/126/103 540/126/103 539/122/103
f 380/198/33 770/198/33 769/1/33
f 241/7/31 631/7/31 630/8/31
f 232/16/104 622/16/104 621/17/104
f 107/139/105 497/139/105 496/133/105
f 183/127/106 573/127/106 572/131/106
f 114/178/107 504/178/107 503/173/107
f 125/174/108 515/174/108 514/179/108
f 108/143/109 498/143/109 497/139/109
f 371/63/110 761/63/110 760/62/110
f 249/25/42 639/25/42 638/22/42
f 365/53/111 755/53/111 754/51/111
f 240/8/10 630/8/10 629/9/10
f 158/152/112 548/152/112 547/148/112
f 191/1/19 581/1/19 635/2/19
f 370/62/15 760/62/15 759/60/15
f 122/183/113 512/183/113 511/185/113
f 116/182/214 506/182/214 505/180/214
f 166/176/115 556/176/115 555/172/115
f 373/67/116 763/67/116 762/65/116
f 378/74/22 768/74/22 767/72/22
f 199/88/117 589/88/117 588/89/117
f 388/191/33 778/191/33 777/189/33
f 248/22/33 638/22/33 637/3/33
f 123/181/215 513/181/215 512/183/215
f 207/80/7 597/80/7 596/81/7
f 130/145/216 520/145/216 519/150/216
f 271/53/111 661/53/111 660/51/111
f 133/130/120 523/130/120 522/134/120
f 340/24/43 730/24/43 768/74/43
f 256/33/44 646/33/44 645/32/44
f 57/3/71 447/3/71 446/24/71
f 387/189/71 777/189/71 776/192/71
f 174/157/217 564/157/217 563/161/217
f 285/1/19 675/1/19 729/2/19
f 138/104/122 528/104/122 527/106/122
f 169/171/218 559/171/218 558/175/218
f 215/64/124 605/64/124 604/66/124
f 381/197/71 771/197/71 770/198/71
f 264/43/57 654/43/57 653/42/57
f 386/192/43 776/192/43 775/194/43
f 9/88/117 399/88/117 398/89/117
f 131/140/125 521/140/125 520/145/125
f 182/131/126 572/131/126 571/135/126
f 141/98/127 531/98/127 530/100/127
f 132/134/128 522/134/128 521/140/128
f 139/102/129 529/102/129 528/104/129
f 223/41/36 613/41/36 612/45/36
f 190/74/131 580/74/131 579/111/131
f 149/122/132 539/122/132 538/120/132
f 389/190/71 779/190/71 778/191/71
f 272/54/9 662/54/9 661/53/9
f 231/17/5 621/17/5 620/18/5
f 146/114/134 536/114/134 535/112/134
f 247/3/71 637/3/71 636/24/71
f 17/80/7 407/80/7 406/81/7
f 239/9/65 629/9/65 628/10/65
f 154/138/135 544/138/135 543/136/135
f 198/89/136 588/89/136 587/93/136
f 12/85/17 402/85/17 401/86/17
f 147/118/138 537/118/138 536/114/138
f 206/81/219 596/81/219 595/82/219
f 155/142/140 545/142/140 544/138/140
f 287/75/71 677/75/71 676/90/71
f 255/32/82 645/32/82 644/31/82
f 214/66/141 604/66/141 603/69/141
f 157/148/142 547/148/142 546/146/142
f 269/50/96 659/50/96 658/48/96
f 280/68/27 670/68/27 669/67/27
f 257/34/28 647/34/28 646/33/28
f 162/164/143 552/164/143 551/162/143
f 222/45/144 612/45/144 611/49/144
f 165/172/145 555/172/145 554/170/145
f 148/120/146 538/120/146 537/118/146
f 25/64/220 415/64/220 414/66/220
f 288/91/148 678/91/148 677/75/148
f 163/168/149 553/168/149 552/164/149
f 230/18/221 620/18/221 619/19/221
f 173/161/222 563/161/222 562/163/222
f 33/41/36 423/41/36 422/45/36
f 379/1/19 769/1/19 780/74/19
f 156/146/151 546/146/151 545/142/151
f 171/167/152 561/167/152 560/169/152
f 170/169/153 560/169/153 559/171/153
f 210/77/23 600/77/23 599/78/23
f 8/89/136 398/89/136 397/93/136
f 238/10/34 628/10/34 627/11/34
f 164/170/154 554/170/154 553/168/154
f 265/44/51 655/44/51 654/43/51
f 178/144/155 568/144/155 567/147/155
f 172/163/156 562/163/156 561/167/156
f 179/141/157 569/141/157 568/144/157
f 16/81/219 406/81/219 405/82/219
f 181/135/223 571/135/223 570/137/223
f 273/56/60 663/56/60 662/54/60
f 254/31/52 644/31/52 643/29/52
f 331/11/159 721/11/159 720/12/159
f 299/82/160 689/82/160 688/83/160
f 189/111/161 579/111/161 578/113/161
f 41/17/5 431/17/5 430/18/5
f 186/119/162 576/119/162 575/121/162
f 350/33/44 740/33/44 739/32/44
f 197/93/163 587/93/163 586/92/163
f 187/117/224 577/117/224 576/119/224
f 194/91/148 584/91/148 583/75/148
f 262/40/225 652/40/225 651/39/225
f 188/113/165 578/113/165 577/117/165
f 195/94/33 585/94/33 584/91/33
f 24/66/141 414/66/141 413/69/141
f 7/93/163 397/93/163 396/92/163
f 205/82/160 595/82/160 594/83/160
f 281/70/75 671/70/75 670/68/75
f 213/69/14 603/69/14 602/73/14
f 196/92/166 586/92/166 585/94/166
f 203/84/167 593/84/167 592/85/167
f 32/45/144 422/45/144 421/49/144
f 221/49/37 611/49/37 610/52/37
f 115/180/169 505/180/169 504/178/169
f 211/76/170 601/76/170 600/77/170
f 289/94/33 679/94/33 678/91/33
f 204/83/12 594/83/12 593/84/12
f 175/153/171 565/153/171 564/157/171
f 270/51/226 660/51/226 659/50/226
f 229/19/47 619/19/47 618/20/47
f 15/82/160 405/82/160 404/83/160
f 212/73/26 602/73/26 601/76/26
f 49/9/65 439/9/65 438/10/65
f 219/55/173 609/55/173 608/57/173
f 40/18/221 430/18/221 429/19/221
f 279/67/184 669/67/184 668/65/184
f 237/11/159 627/11/159 626/12/159
f 220/52/39 610/52/39 609/55/39
f 297/84/167 687/84/167 686/85/167
f 228/20/50 618/20/50 617/21/50
f 312/57/175 702/57/175 701/59/175
f 227/21/176 617/21/176 616/23/176
f 48/10/34 438/10/34 437/11/34
f 278/65/77 668/65/77 667/63/77
f 236/12/66 626/12/66 625/13/66
f 235/13/177 625/13/177 624/14/177
f 305/76/170 695/76/170 694/77/170
f 23/69/14 413/69/14 412/73/14
f 245/2/43 635/2/43 634/4/43
f 309/64/220 699/64/220 698/66/220
f 343/25/42 733/25/42 732/22/42
f 341/3/71 731/3/71 730/24/71
f 20/77/23 410/77/23 409/78/23
f 320/23/178 710/23/178 709/30/178
f 243/5/179 633/5/179 632/6/179
f 253/29/80 643/29/80 642/28/80
f 244/4/73 634/4/73 633/5/73
f 65/32/82 455/32/82 454/31/82
f 6/92/166 396/92/166 395/94/166
f 277/63/110 667/63/110 666/62/110
f 328/14/180 718/14/180 717/15/180
f 64/31/227 454/31/227 453/29/227
f 263/42/228 653/42/228 652/40/228
f 73/42/95 463/42/95 462/40/95
f 321/21/176 711/21/176 710/23/176
f 286/90/33 676/90/33 675/1/33
f 72/40/61 462/40/61 461/39/61
f 31/49/37 421/49/37 420/52/37
f 252/28/91 642/28/91 641/27/91
f 251/27/182 641/27/182 640/26/182
f 329/13/177 719/13/177 718/14/177
f 218/57/175 608/57/175 607/59/175
f 294/87/83 684/87/83 683/88/83
f 39/19/47 429/19/47 428/20/47
f 260/38/98 650/38/98 649/36/98
f 226/23/178 616/23/178 615/30/178
f 302/79/90 692/79/90 691/80/90
f 14/83/12 404/83/12 403/84/12
f 5/94/33 395/94/33 394/91/33
f 336/6/11 726/6/11 725/7/11
f 316/45/144 706/45/144 705/49/144
f 80/51/70 470/51/70 469/50/70
f 234/14/180 624/14/180 623/15/180
f 47/11/159 437/11/159 436/12/159
f 81/53/111 471/53/111 470/51/111
f 4/91/148 394/91/148 393/75/148
f 337/5/179 727/5/179 726/6/179
f 310/61/97 700/61/97 699/64/97
f 261/39/87 651/39/87 650/38/87
f 242/6/11 632/6/11 631/7/11
f 55/2/43 445/2/43 444/4/43
f 268/48/102 658/48/102 657/47/102
f 22/73/229 412/73/229 411/76/229
f 13/84/167 403/84/167 402/85/167
f 318/37/101 708/37/101 707/41/101
f 89/67/116 479/67/116 478/65/116
f 88/65/77 478/65/77 477/63/77
f 63/29/80 453/29/80 452/28/80
f 345/27/182 735/27/182 734/26/182
f 250/26/29 640/26/29 639/25/29
f 313/55/173 703/55/173 702/57/173
f 246/24/43 636/24/43 674/74/43
f 276/62/230 666/62/230 665/60/230
f 326/16/104 716/16/104 715/17/104
f 30/52/39 420/52/39 419/55/39
f 21/76/170 411/76/170 410/77/170
f 71/39/87 461/39/87 460/38/87
f 180/137/186 570/137/186 569/141/186
f 284/74/22 674/74/22 673/72/22
f 56/24/43 446/24/43 484/74/43
f 334/8/10 724/8/10 723/9/10
f 2/90/33 392/90/33 391/1/33
f 38/20/50 428/20/50 427/21/50
f 29/55/173 419/55/173 418/57/173
f 96/95/187 486/95/187 485/1/187
f 79/50/96 469/50/96 468/48/96
f 295/86/211 685/86/211 684/87/211
f 352/35/188 742/35/188 741/34/188
f 353/36/189 743/36/189 742/35/189
f 258/35/55 648/35/55 647/34/55
f 46/12/66 436/12/66 435/13/66
f 292/89/136 682/89/136 681/93/136
f 97/97/190 487/97/190 486/95/190
f 104/123/191 494/123/191 493/115/191
f 3/75/71 393/75/71 392/90/71
f 10/87/83 400/87/83 399/88/83
f 303/78/86 693/78/86 692/79/86
f 37/21/176 427/21/176 426/23/176
f 361/47/192 751/47/192 750/46/192
f 266/46/193 656/46/193 655/44/193
f 267/47/192 657/47/192 656/46/192
f 54/4/73 444/4/73 443/5/73
f 300/81/139 690/81/139 689/82/139
f 360/46/193 750/46/193 749/44/193
f 11/86/211 401/86/211 400/87/211
f 259/36/189 649/36/189 648/35/189
f 311/59/88 701/59/88 700/61/88
f 45/13/177 435/13/177 434/14/177
f 105/129/194 495/129/194 494/123/194
f 112/165/195 502/165/195 501/159/195
f 140/100/196 530/100/196 529/102/196
f 369/60/49 759/60/49 758/58/49
f 274/58/67 664/58/67 663/56/67
f 18/79/90 408/79/90 407/80/90
f 308/66/141 698/66/141 697/69/141
f 344/26/29 734/26/29 733/25/29
f 19/78/86 409/78/86 408/79/86
f 342/22/33 732/22/33 731/3/33
f 275/60/49 665/60/49 664/58/49
f 62/28/91 452/28/91 451/27/91
f 53/5/179 443/5/179 442/6/179
f 368/58/67 758/58/67 757/56/67
f 120/187/197 510/187/197 509/188/197
f 87/63/110 477/63/110 476/62/110
f 26/61/97 416/61/97 415/64/97
f 319/30/8 709/30/8 708/37/8
f 113/173/198 503/173/198 502/165/198
f 377/72/54 767/72/54 766/71/54
f 283/72/54 673/72/54 672/71/54
f 376/71/79 766/71/79 765/70/79
f 28/57/175 418/57/175 417/59/175
f 282/71/79 672/71/79 671/70/79
f 70/38/183 460/38/183 459/36/183
f 121/185/200 511/185/200 510/187/200
f 128/156/201 518/156/201 517/160/201
f 27/59/212 417/59/212 416/61/212
f 34/37/101 424/37/101 423/41/101
f 327/15/18 717/15/18 716/16/18
f 385/194/71 775/194/71 774/195/71
f 291/93/163 681/93/163 680/92/163
f 78/48/102 468/48/102 467/47/102
f 61/27/182 451/27/182 450/26/182
f 384/195/33 774/195/33 773/193/33
f 36/23/178 426/23/178 425/30/178
f 136/109/203 526/109/203 525/116/203
f 358/43/57 748/43/57 747/42/57
f 335/7/31 725/7/31 724/8/31
f 129/150/204 519/150/204 518/156/204
f 293/88/117 683/88/117 682/89/117
f 95/1/205 485/1/205 532/96/205
f 103/115/206 493/115/206 492/107/206
f 42/16/104 432/16/104 431/17/104
f 44/14/180 434/14/180 433/15/180
f 144/110/207 534/110/207 533/108/207
f 290/92/166 680/92/166 679/94/166
